<svg xmlns="http://www.w3.org/2000/svg" width="56.716" height="64.818" viewBox="0 0 56.716 64.818">
  <path id="bell-solid" d="M28.357,64.818a8.1,8.1,0,0,0,8.1-8.1h-16.2A8.1,8.1,0,0,0,28.357,64.818ZM55.625,45.865C53.179,43.237,48.6,39.283,48.6,26.332a19.992,19.992,0,0,0-16.2-19.643V4.051a4.049,4.049,0,1,0-8.1,0V6.689a19.992,19.992,0,0,0-16.2,19.643c0,12.951-4.576,16.9-7.022,19.533A3.955,3.955,0,0,0,0,48.613a4.055,4.055,0,0,0,4.064,4.051H52.651a4.054,4.054,0,0,0,4.064-4.051A3.953,3.953,0,0,0,55.625,45.865Z" transform="translate(0.001)" fill="#f29100"/>
</svg>
