<svg xmlns="http://www.w3.org/2000/svg" width="81.023" height="64.818" viewBox="0 0 81.023 64.818">
  <path id="broom-solid" d="M32.469,27.443l10.98,13.822s-2.1,12.959-9.694,19S0,64.589,0,64.589s.481-2.929,1.393-7.017l11.979-14.2a.759.759,0,0,0-.842-1.2l-7.647,2.8c1.828-5.274,4.142-10.133,6.912-12.34,7.592-6.046,20.673-5.183,20.673-5.183ZM80.583,3.928,78.069.763A2.018,2.018,0,0,0,75.232.439L45.8,22.948l-4.322-5.44a1.393,1.393,0,0,0-2.353.28l-3.207,6.906L46.9,38.516l7.444-1.576a1.392,1.392,0,0,0,.8-2.228l-4.316-5.434L80.261,6.769a2.023,2.023,0,0,0,.323-2.841Z" transform="translate(0 0)" fill="#f29100"/>
</svg>
