<svg xmlns="http://www.w3.org/2000/svg" width="67.103" height="65" viewBox="0 0 67.103 65">
  <g id="fire-in-the-house" transform="translate(0 0)">
    <path id="Path_46" data-name="Path 46" d="M65.158,48.061l-7.6-8.069V23.142a3.87,3.87,0,0,0-3.875-3.959H50.4a3.917,3.917,0,0,0-3.875,3.959v5.126l-5.52-5.824a9.8,9.8,0,0,0-7.385-3.261,10.325,10.325,0,0,0-7.458,3.261L1.926,48.073C-2.181,52.425.878,58.249,5.509,58.249H9.53V77.89a6.2,6.2,0,0,0,6.044,6.293H51.522a6.2,6.2,0,0,0,6.044-6.293V58.236h4.107C66.279,58.236,69.265,52.412,65.158,48.061ZM33.767,77.268c-8.128,0-14.7-6.839-14.7-15.3a15.5,15.5,0,0,1,5.593-11.952c.743-.546,1.267,0,1.048.393-2.388,5.748-.67,11.419,3.351,12.574a19.749,19.749,0,0,1-1.34-9.63,19.418,19.418,0,0,1,6.263-12.345,1.042,1.042,0,0,1,.743-.393c.219,0,.378.228.292.546a21.951,21.951,0,0,0-.524,3.032,19.612,19.612,0,0,0,2.315,11.571c2.839,0,4.021-3.413,4.326-5.748,0-.546.451-.926,1.267-.3a15.373,15.373,0,0,1,6.044,12.269C48.451,70.429,41.9,77.268,33.767,77.268Z" transform="translate(0 -19.183)" fill="#f29100"/>
  </g>
</svg>
