<svg xmlns="http://www.w3.org/2000/svg" width="15" height="20" viewBox="0 0 15 20">
  <g id="fire" transform="translate(-47.262)">
    <path id="Path_63" data-name="Path 63" d="M47.512,9.754a7.829,7.829,0,0,0,2.25,2.143S48.659,1.76,55.847,0c-1.842,7.348,2.343,9.421,3.868,5.539a6.567,6.567,0,0,1,.613,6.923c1.044.164,1.922-1.077,1.922-1.077.008.153.012.307.012.462,0,4.5-3.358,8.154-7.5,8.154s-7.5-3.651-7.5-8.154A8.838,8.838,0,0,1,47.512,9.754Z" fill="#ff6536"/>
    <path id="Path_64" data-name="Path 64" d="M263.734,11.385s-.906,1.241-1.985,1.077a6.393,6.393,0,0,0-.633-6.923c-1.575,3.882-5.9,1.81-3.995-5.539A8.017,8.017,0,0,0,256,.352V20a7.958,7.958,0,0,0,7.746-8.154C263.746,11.691,263.742,11.537,263.734,11.385Z" transform="translate(-201.484 0)" fill="#ff421d"/>
    <path id="Path_65" data-name="Path 65" d="M164.456,279.624a3.4,3.4,0,1,0,5.666-2.529c-1.313,1.784-3.185-.922-1.726-2.9C168.4,274.2,164.456,274.69,164.456,279.624Z" transform="translate(-113.091 -263.021)" fill="#fbbf00"/>
    <path id="Path_66" data-name="Path 66" d="M259.4,279.624a3.388,3.388,0,0,0-1.128-2.529c-1.313,1.784-3.185-.922-1.726-2.9a3.419,3.419,0,0,0-.542.13v8.694A3.4,3.4,0,0,0,259.4,279.624Z" transform="translate(-201.307 -263.021)" fill="#ffa900"/>
  </g>
</svg>
