<svg id="email_met_hover" data-name="email met hover" xmlns="http://www.w3.org/2000/svg" width="34.952" height="33.432" viewBox="0 0 34.952 33.432">
  <path id="Path_20" data-name="Path 20" d="M43.535,12.233l-12.78,9.239-2.1,1.52a3.146,3.146,0,0,1-3.738,0l-2.1-1.52-12.8-9.224a3.778,3.778,0,0,1,3.085-1.58H40.465A3.8,3.8,0,0,1,43.535,12.233Z" transform="translate(-9.313 -10.668)" fill="#ffd290"/>
  <g id="Group_5" data-name="Group 5" transform="translate(0 1.565)">
    <path id="Path_21" data-name="Path 21" d="M.714,32.855l12.8,9.224-12.4,12.4A3.8,3.8,0,0,1,0,51.79V35.074A3.754,3.754,0,0,1,.714,32.855Z" transform="translate(0 -32.84)" fill="#f29100"/>
    <path id="Path_22" data-name="Path 22" d="M314.523,34.876V51.592a3.8,3.8,0,0,1-1.109,2.69l-12.4-12.4,12.78-9.239A3.777,3.777,0,0,1,314.523,34.876Z" transform="translate(-279.572 -32.642)" fill="#f29100"/>
  </g>
  <path id="Path_23" data-name="Path 23" d="M141.677,255.97c-1.009,0-1.52-.76-1.52-2.279a3.845,3.845,0,1,0-.925,2.457,2.709,2.709,0,0,0,2.445,1.342c3.039,0,3.039-2.86,3.039-3.8a8.358,8.358,0,1,0-2.547,6.007.762.762,0,1,0-1.064-1.093h0a6.838,6.838,0,1,1,2.091-4.914C143.2,255.394,142.813,255.97,141.677,255.97Zm-5.319,0a2.279,2.279,0,1,1,2.279-2.279A2.279,2.279,0,0,1,136.358,255.97Z" transform="translate(-118.882 -228.616)" fill="#023c48"/>
  <path id="Path_24" data-name="Path 24" d="M35.907,162.348l-2.1,1.52a3.146,3.146,0,0,1-3.738,0l-2.1-1.52-12.4,12.4a3.8,3.8,0,0,0,2.69,1.109H22.1a9.867,9.867,0,0,1,19.678,0h3.839a3.8,3.8,0,0,0,2.69-1.109Z" transform="translate(-14.464 -151.543)" fill="#e84e1b"/>
</svg>
