<svg id="mark_met_hover" data-name="mark met hover" xmlns="http://www.w3.org/2000/svg" width="20.924" height="29.758" viewBox="0 0 20.924 29.758">
  <path id="Path_59" data-name="Path 59" d="M86.462,0A10.47,10.47,0,0,0,76,10.462a10.316,10.316,0,0,0,1.569,5.492l8.183,13.392a.826.826,0,0,0,.593.4.868.868,0,0,0,.889-.418l8.207-13.514a10.318,10.318,0,0,0,1.482-5.353A10.47,10.47,0,0,0,86.462,0Zm0,15.693a5.231,5.231,0,1,1,5.231-5.231A5.224,5.224,0,0,1,86.462,15.693Z" transform="translate(-76)" fill="#f29100"/>
  <path id="Path_60" data-name="Path 60" d="M256,0V5.231a5.231,5.231,0,0,1,0,10.462V29.757a.863.863,0,0,0,.773-.429l8.207-13.514a10.318,10.318,0,0,0,1.482-5.353A10.47,10.47,0,0,0,256,0Z" transform="translate(-245.538)" fill="#e84e1b"/>
</svg>
