<svg id="Group_69" data-name="Group 69" xmlns="http://www.w3.org/2000/svg" xmlns:xlink="http://www.w3.org/1999/xlink" width="48.596" height="53.279" viewBox="0 0 48.596 53.279">
  <defs>
    <linearGradient id="linear-gradient" x1="0.5" y1="0.948" x2="0.5" y2="0.177" gradientUnits="objectBoundingBox">
      <stop offset="0" stop-color="#e84e1b"/>
      <stop offset="1" stop-color="#f29100"/>
    </linearGradient>
  </defs>
  <path id="Path_1" data-name="Path 1" d="M81.268,42.951,68.4,35.52a26.2,26.2,0,0,1,4.779,7.8l5.91,3.413a2.092,2.092,0,0,1,.8,1.382l.406,31.869c.017,1.172,0,1.377-.8,1.383-2.031.016-6.945-.057-6.945-.057,6.536-11.344.634-27.278.634-27.278A9.137,9.137,0,0,1,68,61.084c9.944-16.324-9.336-29.223-9.336-29.223,7.467,12.753-6.725,26.085-6.725,26.085a5.956,5.956,0,0,0-2.519-7.226c-7.764,9.081-3.031,25.813-.591,30.954,0,0-6.668.03-7.427.035-.867.005-.931-.507-.949-1.73V48.11a2.094,2.094,0,0,1,.8-1.382l16.126-9.309a15.312,15.312,0,0,0-1.316-4.277L39.072,42.951a6.311,6.311,0,0,0-2.979,5.16V79.979c-.015,5.161-.4,5.161,2.979,5.161,2.31,0,18.882-.122,19.309,0-8.376-7.107-7.187-20.536,3.243-28-10.323,12.483,3.907,28,11.39,28h8.66c3.369,0,2.98,0,2.98-5.161L84.248,48.11A6.312,6.312,0,0,0,81.268,42.951Z" transform="translate(-36.072 -31.861)" fill="url(#linear-gradient)"/>
  <path id="Path_2" data-name="Path 2" d="M111.472,73.741c2.8-5.861,1.911-12.511-.981-18.211C115.094,60.772,116,68.219,111.472,73.741Z" transform="translate(-81.594 -46.339)" fill="url(#linear-gradient)"/>
</svg>
