<svg id="phone_met_hover" data-name="phone met hover" xmlns="http://www.w3.org/2000/svg" width="30" height="30" viewBox="0 0 30 30">
  <g id="Circle_Grid" data-name="Circle Grid">
    <circle id="Ellipse_1" data-name="Ellipse 1" cx="15" cy="15" r="15" fill="#023c48"/>
  </g>
  <g id="icon" transform="translate(4.818 5.667)">
    <path id="Path_26" data-name="Path 26" d="M28.931,36.078c1.972,1.972,3.9,2.772,4.6,2.076l.957-.957a1.686,1.686,0,0,1,2.384,0l2.146,2.146a1.686,1.686,0,0,1,0,2.384L37.347,43.4c-1.58,1.58-6.252-.529-10.73-5.007a23.141,23.141,0,0,1-4.655-6.332c-.949-1.984-1.142-3.609-.352-4.4l1.672-1.672a1.686,1.686,0,0,1,2.384,0l2.146,2.146a1.686,1.686,0,0,1,0,2.384l-.957.957C26.159,32.174,26.959,34.107,28.931,36.078Z" transform="translate(-21.118 -25.397)" fill="#f29100"/>
    <g id="Group_7" data-name="Group 7" transform="translate(9.721)">
      <path id="Path_27" data-name="Path 27" d="M71.8,33.828a7.72,7.72,0,0,0-7.711-7.711V25.054a8.784,8.784,0,0,1,8.775,8.775Z" transform="translate(-64.093 -25.054)" fill="#ffd290"/>
      <path id="Path_28" data-name="Path 28" d="M69.145,42.923a5.058,5.058,0,0,0-5.052-5.052V36.808a6.123,6.123,0,0,1,6.116,6.115Z" transform="translate(-64.093 -34.149)" fill="#ffd290"/>
      <path id="Path_29" data-name="Path 29" d="M66.487,52.019a2.4,2.4,0,0,0-2.393-2.393V48.563a3.461,3.461,0,0,1,3.457,3.456Z" transform="translate(-64.094 -43.245)" fill="#ffd290"/>
    </g>
  </g>
</svg>
