<svg id="Group_53" data-name="Group 53" xmlns="http://www.w3.org/2000/svg" xmlns:xlink="http://www.w3.org/1999/xlink" width="273.906" height="53.783" viewBox="0 0 273.906 53.783">
  <defs>
    <linearGradient id="linear-gradient" x1="0.5" y1="0.948" x2="0.5" y2="0.177" gradientUnits="objectBoundingBox">
      <stop offset="0" stop-color="#e84e1b"/>
      <stop offset="1" stop-color="#f29100"/>
    </linearGradient>
  </defs>
  <path id="Path_1" data-name="Path 1" d="M81.268,42.951,68.4,35.52a26.2,26.2,0,0,1,4.779,7.8l5.91,3.413a2.092,2.092,0,0,1,.8,1.382l.406,31.869c.017,1.172,0,1.377-.8,1.383-2.031.016-6.945-.057-6.945-.057,6.536-11.344.634-27.278.634-27.278A9.137,9.137,0,0,1,68,61.084c9.944-16.324-9.336-29.223-9.336-29.223,7.467,12.753-6.725,26.085-6.725,26.085a5.956,5.956,0,0,0-2.519-7.226c-7.764,9.081-3.031,25.813-.591,30.954,0,0-6.668.03-7.427.035-.867.005-.931-.507-.949-1.73V48.11a2.094,2.094,0,0,1,.8-1.382l16.126-9.309a15.312,15.312,0,0,0-1.316-4.277L39.072,42.951a6.311,6.311,0,0,0-2.979,5.16V79.979c-.015,5.161-.4,5.161,2.979,5.161,2.31,0,18.882-.122,19.309,0-8.376-7.107-7.187-20.536,3.243-28-10.323,12.483,3.907,28,11.39,28h8.66c3.369,0,2.98,0,2.98-5.161L84.248,48.11A6.312,6.312,0,0,0,81.268,42.951Z" transform="translate(-36.072 -31.861)" fill="url(#linear-gradient)"/>
  <g id="Group_2" data-name="Group 2" transform="translate(56.654 22.811)">
    <path id="Path_3" data-name="Path 3" d="M185.606,82.072h-3.631V80.925H190.5v1.147h-3.631V90.59h-1.263Z" transform="translate(-181.975 -80.925)" fill="#023c48"/>
    <path id="Path_4" data-name="Path 4" d="M206.342,80.925H207.6v5.249h5.931V80.925H214.8V90.59h-1.263V87.321H207.6V90.59h-1.263Z" transform="translate(-196.88 -80.925)" fill="#023c48"/>
    <path id="Path_5" data-name="Path 5" d="M231.59,80.925H238.8v1.147h-5.952v2.607h5.3v1.147h-5.3v3.618h6.089V90.59H231.59Z" transform="translate(-212.324 -80.925)" fill="#023c48"/>
    <path id="Path_6" data-name="Path 6" d="M182.674,117.332h2.1v8.748h9.886v-8.748h2.1V133.44h-2.1v-5.449h-9.886v5.449h-2.1Z" transform="translate(-182.403 -103.195)" fill="#023c48" stroke="#023c48" stroke-miterlimit="10" stroke-width="1"/>
    <path id="Path_7" data-name="Path 7" d="M225.754,117.332h12.024v1.911h-9.92v4.346H236.7V125.5h-8.839v6.029h10.147v1.911H225.754Z" transform="translate(-208.755 -103.195)" fill="#023c48" stroke="#023c48" stroke-miterlimit="10" stroke-width="1"/>
    <path id="Path_8" data-name="Path 8" d="M269.958,117.332h-1.194l-7.531,16.108h11.451l-.87-1.911h-7.52l3.344-7.144q.308-.66.569-1.3l.58-1.479a8.945,8.945,0,0,0,.41-1.3h.137a13.665,13.665,0,0,0,.512,1.707l.455,1.285q.262.683.535,1.32l3.106,6.905.886,1.911h2.106Z" transform="translate(-230.456 -103.195)" fill="#023c48" stroke="#023c48" stroke-miterlimit="10" stroke-width="1"/>
    <path id="Path_9" data-name="Path 9" d="M300.409,119.243h-6.052v-1.911h14.209v1.911h-6.052v14.2h-2.1Z" transform="translate(-250.719 -103.195)" fill="#023c48" stroke="#023c48" stroke-miterlimit="10" stroke-width="1"/>
    <path id="Path_10" data-name="Path 10" d="M336.3,117.332h2.1V133.44h-2.1Z" transform="translate(-276.377 -103.195)" fill="#023c48" stroke="#023c48" stroke-miterlimit="10" stroke-width="1"/>
    <path id="Path_11" data-name="Path 11" d="M349.5,117.332h1.843l10.375,12.718V117.332H363.6V133.44h-1.763l-10.454-12.809V133.44H349.5Z" transform="translate(-284.452 -103.195)" fill="#023c48" stroke="#023c48" stroke-miterlimit="10" stroke-width="1"/>
    <path id="Path_12" data-name="Path 12" d="M391.333,129.424a8.128,8.128,0,0,1-.831-1.968,8.882,8.882,0,0,1,.017-4.608,8.015,8.015,0,0,1,.893-2.048,8.151,8.151,0,0,1,1.388-1.689,8.394,8.394,0,0,1,1.8-1.274,9.532,9.532,0,0,1,4.516-1.092,8.862,8.862,0,0,1,5.95,2l-1.183,1.615a7.31,7.31,0,0,0-4.971-1.729,6.41,6.41,0,0,0-4.573,1.775,5.855,5.855,0,0,0-1.9,4.448,6.321,6.321,0,0,0,1.877,4.733,6.521,6.521,0,0,0,4.766,1.832,6.411,6.411,0,0,0,3.925-1.286,5.075,5.075,0,0,0,.83-.762v-1.74H398.25v-1.911h7.69s.48,2.842,0,3.756a5.134,5.134,0,0,1-2.1,2.045,9.7,9.7,0,0,1-3.469,1.627,9.56,9.56,0,0,1-1.855.159,9.021,9.021,0,0,1-2.15-.268,8.42,8.42,0,0,1-2.025-.773,8.242,8.242,0,0,1-1.7-1.223A7.257,7.257,0,0,1,391.333,129.424Z" transform="translate(-309.35 -102.837)" fill="#023c48" stroke="#023c48" stroke-miterlimit="10" stroke-width="1"/>
    <path id="Path_13" data-name="Path 13" d="M465.8,120.318a7.024,7.024,0,0,0-4.858-1.684,6.41,6.41,0,0,0-4.573,1.775,5.855,5.855,0,0,0-1.9,4.448,6.272,6.272,0,0,0,1.957,4.664,6.507,6.507,0,0,0,4.721,1.9,8.747,8.747,0,0,0,4.016-1.024,5.524,5.524,0,0,0,1.024-.648l.819,1.57a8.533,8.533,0,0,1-4.311,1.854,11.047,11.047,0,0,1-1.752.137,9.454,9.454,0,0,1-3.367-.6,8.633,8.633,0,0,1-2.77-1.672,7.869,7.869,0,0,1-1.877-2.565,7.108,7.108,0,0,1-.688-3,9.731,9.731,0,0,1,.313-2.622,8,8,0,0,1,.893-2.048,8.152,8.152,0,0,1,1.388-1.689,8.375,8.375,0,0,1,1.8-1.274,9.529,9.529,0,0,1,4.516-1.092,8.958,8.958,0,0,1,5.711,1.888Z" transform="translate(-347.294 -102.837)" fill="#023c48" stroke="#023c48" stroke-miterlimit="10" stroke-width="1"/>
    <path id="Path_14" data-name="Path 14" d="M492.514,131.04a7.868,7.868,0,0,1-1.877-2.565,7.108,7.108,0,0,1-.688-3,9.728,9.728,0,0,1,.313-2.622,8,8,0,0,1,.893-2.048,8.153,8.153,0,0,1,1.388-1.689,8.373,8.373,0,0,1,1.8-1.274,9.529,9.529,0,0,1,4.516-1.092,9.373,9.373,0,0,1,4.368,1.046,8.116,8.116,0,0,1,3.14,2.844,7.768,7.768,0,0,1,1.195,4.22,7.955,7.955,0,0,1-2.594,6.086,8.728,8.728,0,0,1-3.925,2.082,11.126,11.126,0,0,1-2.662.285,8.727,8.727,0,0,1-3.094-.6A8.633,8.633,0,0,1,492.514,131.04Zm1.559-10.631a6.028,6.028,0,0,0-1.894,4.471,6.305,6.305,0,0,0,.523,2.56,6.635,6.635,0,0,0,6.154,3.982,6.411,6.411,0,0,0,4.573-1.775,5.878,5.878,0,0,0,1.9-4.448,6.489,6.489,0,0,0-3.31-5.677,6.128,6.128,0,0,0-3.117-.887,7.414,7.414,0,0,0-2.77.472A6.489,6.489,0,0,0,494.073,120.409Z" transform="translate(-370.362 -102.837)" fill="#023c48" stroke="#023c48" stroke-miterlimit="10" stroke-width="1"/>
    <path id="Path_15" data-name="Path 15" d="M538.751,117.361h.626l7.11,7.792,7.1-7.792h.671l1.365,16.1h-2.059l-1.035-12.115-6.018,6.666h-.228l-5.836-6.564-.91,12.013H537.5Z" transform="translate(-399.449 -103.213)" fill="#023c48" stroke="#023c48" stroke-miterlimit="10" stroke-width="1"/>
    <path id="Path_16" data-name="Path 16" d="M600.292,118.788a8.381,8.381,0,0,0-5.165-1.456h-6.382v1.911H594.8a6.481,6.481,0,0,1,3.788.99,3.677,3.677,0,0,1,1.57,3.208,4.249,4.249,0,0,1-1.4,3.4,5.415,5.415,0,0,1-3.663,1.16h-4.243v-7.048l-2.1.01V133.44h2.1v-3.527h3.959a8.188,8.188,0,0,0,5.369-1.718,6.013,6.013,0,0,0,2.207-4.892A5.3,5.3,0,0,0,600.292,118.788Z" transform="translate(-430.796 -103.195)" fill="#023c48" stroke="#023c48" stroke-miterlimit="10" stroke-width="1"/>
    <path id="Path_17" data-name="Path 17" d="M627.88,117.332h-1.194l-7.531,16.108H630.6l-.87-1.911h-7.52l3.344-7.144q.307-.66.569-1.3l.58-1.479a8.952,8.952,0,0,0,.41-1.3h.136a13.766,13.766,0,0,0,.512,1.707l.455,1.285q.262.683.535,1.32l3.106,6.905.886,1.911h2.106Z" transform="translate(-449.397 -103.195)" fill="#023c48" stroke="#023c48" stroke-miterlimit="10" stroke-width="1"/>
    <path id="Path_18" data-name="Path 18" d="M663.707,117.332h1.843l10.375,12.718V117.332H677.8V133.44h-1.763l-10.455-12.809V133.44h-1.877Z" transform="translate(-476.65 -103.195)" fill="#023c48" stroke="#023c48" stroke-miterlimit="10" stroke-width="1"/>
    <path id="Path_19" data-name="Path 19" d="M709.418,126.569l-5.938-9.237h2.309l4.7,7.36,4.664-7.36h2.173l-5.8,9.2v6.905h-2.1Z" transform="translate(-500.979 -103.195)" fill="#023c48" stroke="#023c48" stroke-miterlimit="10" stroke-width="1"/>
  </g>
</svg>
