<svg xmlns="http://www.w3.org/2000/svg" width="64.818" height="64.818" viewBox="0 0 64.818 64.818">
  <path id="phone-solid" d="M62.453,3.1,49.287.067a3.058,3.058,0,0,0-3.481,1.76L39.729,16a3.031,3.031,0,0,0,.874,3.545l7.672,6.279A46.918,46.918,0,0,1,25.842,48.261l-6.279-7.672a3.035,3.035,0,0,0-3.545-.874L1.839,45.792A3.075,3.075,0,0,0,.067,49.286L3.105,62.452a3.037,3.037,0,0,0,2.962,2.355,58.733,58.733,0,0,0,58.74-58.74A3.035,3.035,0,0,0,62.453,3.1Z" transform="translate(0.01 0.011)" fill="#f29100"/>
</svg>
