<svg xmlns="http://www.w3.org/2000/svg" width="136.296" height="121.152" viewBox="0 0 136.296 121.152">
  <path id="hotel-solid" d="M132.51,15.144a3.785,3.785,0,0,0,3.786-3.786V3.786A3.785,3.785,0,0,0,132.51,0H3.786A3.785,3.785,0,0,0,0,3.786v7.572a3.785,3.785,0,0,0,3.786,3.786H7.567v90.864H3.786A3.785,3.785,0,0,0,0,109.794v7.572a3.785,3.785,0,0,0,3.786,3.786h56.79v-18.93a3.8,3.8,0,0,1,3.786-3.786h7.572a3.8,3.8,0,0,1,3.786,3.786v18.93h56.79a3.785,3.785,0,0,0,3.786-3.786v-7.572a3.785,3.785,0,0,0-3.786-3.786h-3.786V15.144Zm-71.934,10.6A3.257,3.257,0,0,1,63.6,22.716h9.086a3.257,3.257,0,0,1,3.029,3.029v9.086a3.257,3.257,0,0,1-3.029,3.029H63.6a3.257,3.257,0,0,1-3.029-3.029V25.745Zm0,22.716A3.257,3.257,0,0,1,63.6,45.432h9.086a3.257,3.257,0,0,1,3.029,3.029v9.086a3.257,3.257,0,0,1-3.029,3.029H63.6a3.257,3.257,0,0,1-3.029-3.029V48.461ZM30.288,25.745a3.257,3.257,0,0,1,3.029-3.029H42.4a3.257,3.257,0,0,1,3.029,3.029v9.086A3.257,3.257,0,0,1,42.4,37.86H33.317a3.257,3.257,0,0,1-3.029-3.029V25.745ZM42.4,60.576H33.317a3.257,3.257,0,0,1-3.029-3.029V48.461a3.257,3.257,0,0,1,3.029-3.029H42.4a3.257,3.257,0,0,1,3.029,3.029v9.086A3.257,3.257,0,0,1,42.4,60.576Zm3.029,30.288a22.716,22.716,0,1,1,45.432,0Zm60.576-33.317a3.257,3.257,0,0,1-3.029,3.029H93.893a3.257,3.257,0,0,1-3.029-3.029V48.461a3.257,3.257,0,0,1,3.029-3.029h9.086a3.257,3.257,0,0,1,3.029,3.029v9.086Zm0-22.716a3.257,3.257,0,0,1-3.029,3.029H93.893a3.257,3.257,0,0,1-3.029-3.029V25.745a3.257,3.257,0,0,1,3.029-3.029h9.086a3.257,3.257,0,0,1,3.029,3.029Z" fill="#f29100"/>
</svg>
