<svg id="Group" xmlns="http://www.w3.org/2000/svg" width="28.066" height="27.461" viewBox="0 0 28.066 27.461">
  <path id="Path_58" data-name="Path 58" d="M28.026,22.224a.828.828,0,0,0-.664-.574l-8.7-1.3L14.77,12.266a.813.813,0,0,0-1.475,0L9.4,20.353.7,21.65a.828.828,0,0,0-.664.574.858.858,0,0,0,.208.865l6.3,6.295L5.058,38.271a.854.854,0,0,0,.327.825.8.8,0,0,0,.866.064l7.782-4.2,7.782,4.2a.805.805,0,0,0,.866-.064.854.854,0,0,0,.327-.825l-1.486-8.888,6.3-6.295A.858.858,0,0,0,28.026,22.224Z" transform="translate(0 -11.796)" fill="#f29100"/>
</svg>
