<svg xmlns="http://www.w3.org/2000/svg" width="46.728" height="65" viewBox="0 0 46.728 65">
  <g id="medal" transform="translate(0 0)">
    <path id="Path_47" data-name="Path 47" d="M105.724,45.554,108.7,40.73,114.06,38.9l.594-5.634,4.036-3.973-1.919-5.333,1.919-5.333-4.036-3.973-.594-5.634L108.7,7.192l-2.972-4.823-5.622.679L95.326,0,90.55,3.048l-5.622-.679L81.956,7.193,76.592,9.022,76,14.656l-4.036,3.973,1.919,5.333-1.919,5.333L76,33.267l.594,5.634,5.364,1.829,2.972,4.823,5.622-.679,4.776,3.048,4.776-3.048ZM78.895,23.961A16.431,16.431,0,1,1,95.326,40.393,16.45,16.45,0,0,1,78.895,23.961Z" transform="translate(-71.962 0)" fill="#f29100"/>
    <path id="Path_48" data-name="Path 48" d="M169.21,89.333a12.62,12.62,0,1,0,12.62,12.62A12.635,12.635,0,0,0,169.21,89.333Z" transform="translate(-145.846 -77.992)" fill="#f29100"/>
    <path id="Path_49" data-name="Path 49" d="M97.115,347.871l-6.688.807-3.533-5.734-1.2-.41L80.511,358.73l9.328-.513,7.3,5.832,4.295-13.423Z" transform="translate(-79.426 -299.049)" fill="#f29100"/>
    <path id="Path_50" data-name="Path 50" d="M281.239,342.945l-3.534,5.734-6.688-.807-4.316,2.755L271,364.049l7.3-5.832,9.328.513-5.181-16.195Z" transform="translate(-241.978 -299.049)" fill="#f29100"/>
  </g>
</svg>
