<svg xmlns="http://www.w3.org/2000/svg" width="155.797" height="121.152" viewBox="0 0 155.797 121.152">
  <path id="home-solid" d="M75.818,63.48,25.953,104.549v44.326A4.327,4.327,0,0,0,30.28,153.2l30.308-.078a4.327,4.327,0,0,0,4.306-4.327V122.911a4.327,4.327,0,0,1,4.327-4.327H86.53a4.327,4.327,0,0,1,4.327,4.327v25.867a4.327,4.327,0,0,0,4.327,4.341l30.3.084a4.327,4.327,0,0,0,4.327-4.327V104.52L79.956,63.48a3.3,3.3,0,0,0-4.138,0Zm78.766,27.914-22.61-18.637V35.3a3.246,3.246,0,0,0-3.246-3.246H113.582a3.246,3.246,0,0,0-3.246,3.246V54.934L86.122,35.012a12.982,12.982,0,0,0-16.5,0L1.163,91.394A3.246,3.246,0,0,0,.73,95.965l6.9,8.384a3.246,3.246,0,0,0,4.573.441l63.617-52.4a3.3,3.3,0,0,1,4.138,0l63.62,52.4a3.246,3.246,0,0,0,4.571-.433l6.9-8.384a3.246,3.246,0,0,0-.46-4.579Z" transform="translate(0.015 -32.05)" fill="#f29100"/>
</svg>
