<svg xmlns="http://www.w3.org/2000/svg" width="1239" height="756.658" viewBox="0 0 1239 756.658">
  <g id="Group_73" data-name="Group 73" transform="translate(-47.432 -82.71)">
    <g id="_404" data-name="404" transform="translate(320.607 82.71)">
      <path id="Path_71" data-name="Path 71" d="M273.7,824.9c-1.957,4.095-3.677,10.16-5.1,14.414,38.686,0,80.778.052,115.365.052l118.629-.011,237.261-.022,473.708-.045h.811q.057-375.984.114-751.967c-94.138-19.1-191.666,23.594-262.949,82.216-32.533,26.754-62.069,57.342-100.328,77s-89.146,26.118-124.978,3.041c-36.485-23.5-46.378-69.142-78.212-97.608C616.055,123.392,568,115.665,525.036,123.893c-43.354,8.3-87.755,41.611-101.3,80.486a79.853,79.853,0,0,0-4.163,29.27c1.312,35.209,22.221,65.851,42.31,94.843,15.3,22.08,46.86,37.066,51.657,64.538,2.881,16.506-5.935,33.251-18.772,45.305s-29.357,20.277-45.521,28.456q-69.665,35.254-137.1,73.94c-31.008,17.788-76.908,49.837-59.776,88.666,10.48,23.75,41.179,32.971,62.721,46.341,11.651,7.23,22.281,17.135,25.2,29.61,3.371,14.418-4.126,28.987-12.434,41.673C311.069,772.661,286.962,797.137,273.7,824.9Z" transform="translate(-248.656 -82.71)" fill="rgba(242,145,0,0.18)"/>
      <g id="Group_150" data-name="Group 150" transform="translate(169.632 0.001)">
        <g id="Group_125" data-name="Group 125" transform="translate(240.679 26.73)">
          <g id="Group_122" data-name="Group 122">
            <g id="Group_74" data-name="Group 74" transform="translate(95.142 41.136)">
              <path id="Path_72" data-name="Path 72" d="M690.25,227.312,628.5,213.558l-7.569-11.907L634.6,140.264l11.907-7.568,61.752,13.754,7.569,11.906-13.672,61.386Z" transform="translate(-620.929 -132.695)" fill="#023c48"/>
              <rect id="Rectangle_157" data-name="Rectangle 157" width="64.619" height="64.619" transform="translate(22.938 8.747) rotate(12.556)" fill="#9dd7e3"/>
              <g id="Group_73-2" data-name="Group 73" transform="translate(0)">
                <path id="Path_73" data-name="Path 73" d="M685.6,142.826l-1.32,9.041,8.889,2.866Z" transform="translate(-598.266 -129.072)" fill="#81b3bd"/>
                <path id="Path_74" data-name="Path 74" d="M642.906,132.7l-2.642,8.747L631,140.265Z" transform="translate(-617.327 -132.696)" fill="#81b3bd"/>
                <path id="Path_75" data-name="Path 75" d="M628.5,195.389l1.32-9.041-8.889-2.866Z" transform="translate(-620.929 -114.527)" fill="#81b3bd"/>
                <path id="Path_76" data-name="Path 76" d="M671.985,204.687l2.642-8.747,9.265,1.178Z" transform="translate(-602.664 -110.07)" fill="#81b3bd"/>
              </g>
            </g>
            <g id="Group_81" data-name="Group 81" transform="translate(183.931 84.827)">
              <g id="Group_79" data-name="Group 79" transform="translate(8.545)">
                <g id="Group_77" data-name="Group 77">
                  <g id="Group_75" data-name="Group 75" transform="translate(0 15.398)">
                    <path id="Path_77" data-name="Path 77" d="M692.617,286.228l2.414-10.836c27.612,6.151,54.553-8.942,60.054-33.642,5.875-26.376-8.3-48.868-34.481-54.7l2.414-10.836c32.04,7.136,50.083,35.713,42.9,67.948C759.09,274.838,726.2,293.709,692.617,286.228Z" transform="translate(-692.617 -176.215)" fill="#9dd7e3"/>
                  </g>
                  <g id="Group_76" data-name="Group 76" transform="translate(1.246)">
                    <path id="Path_78" data-name="Path 78" d="M715.48,165.322a18.564,18.564,0,0,0-18.164,6.076l9.011,2.007a8.7,8.7,0,1,1-3.781,16.979l-9.011-2.007a18.574,18.574,0,1,0,21.945-23.055Z" transform="translate(-693.535 -164.874)" fill="#f29100"/>
                  </g>
                </g>
                <g id="Group_78" data-name="Group 78" transform="translate(26.772 18.672)">
                  <path id="Path_79" data-name="Path 79" d="M717.466,181.788a2.6,2.6,0,1,0-3.1,1.97A2.6,2.6,0,0,0,717.466,181.788Z" transform="translate(-712.335 -178.627)" fill="#023c48"/>
                </g>
              </g>
              <g id="Group_80" data-name="Group 80" transform="translate(0 92.81)">
                <rect id="Rectangle_158" data-name="Rectangle 158" width="10.845" height="29.345" transform="translate(14.421 13.519) rotate(12.556)" fill="#023c48"/>
                <rect id="Rectangle_159" data-name="Rectangle 159" width="10.845" height="54.629" transform="translate(11.876) rotate(12.556)" fill="#81b3bd"/>
              </g>
            </g>
            <g id="Group_89" data-name="Group 89" transform="translate(0 37.243)">
              <g id="Group_87" data-name="Group 87">
                <g id="Group_84" data-name="Group 84" transform="translate(0 0.459)">
                  <g id="Group_82" data-name="Group 82" transform="translate(0 18.341)">
                    <path id="Path_80" data-name="Path 80" d="M595.939,266.6c-22.959-5.286-39.881-21.892-44.158-43.345-2.952-14.79,1.256-33.01,11.252-48.734,10.455-16.445,25.528-27.689,41.356-30.844l2.171,10.885c-12.87,2.569-25.321,12.013-34.158,25.915-8.5,13.371-12.14,28.551-9.734,40.606,3.412,17.11,17.116,30.405,35.762,34.7Z" transform="translate(-550.856 -143.674)" fill="#9dd7e3"/>
                  </g>
                  <g id="Group_83" data-name="Group 83" transform="translate(44.614)">
                    <path id="Path_81" data-name="Path 81" d="M594.011,132.805a20.3,20.3,0,0,1,20.928.55l-8.781,4.976a9.506,9.506,0,0,0,9.374,16.541l8.781-4.976a20.3,20.3,0,1,1-30.3-17.091Z" transform="translate(-583.714 -130.166)" fill="#f29100"/>
                  </g>
                </g>
                <g id="Group_85" data-name="Group 85" transform="translate(72.214)">
                  <path id="Path_82" data-name="Path 82" d="M613.288,129.828l-9.246,5.878.467,10.948,9.713,5.068,9.246-5.879L623,134.9Zm3.407,15.571a5.479,5.479,0,1,1,1.684-7.563A5.48,5.48,0,0,1,616.695,145.4Z" transform="translate(-604.042 -129.828)" fill="#023c48"/>
                </g>
                <g id="Group_86" data-name="Group 86" transform="translate(52.959 22.736)">
                  <path id="Path_83" data-name="Path 83" d="M594.992,149.734a2.6,2.6,0,1,0-3.1,1.97A2.6,2.6,0,0,0,594.992,149.734Z" transform="translate(-589.861 -146.573)" fill="#023c48"/>
                </g>
              </g>
              <g id="Group_88" data-name="Group 88" transform="translate(31.725 107.06)">
                <rect id="Rectangle_160" data-name="Rectangle 160" width="10.845" height="29.345" transform="translate(10.586 42.162) rotate(-167.444)" fill="#023c48"/>
                <rect id="Rectangle_161" data-name="Rectangle 161" width="10.845" height="54.629" transform="translate(13.13 55.68) rotate(-167.444)" fill="#81b3bd"/>
              </g>
            </g>
            <g id="Group_95" data-name="Group 95" transform="translate(33.115 133.645)">
              <path id="Path_84" data-name="Path 84" d="M694.086,363.034l-105.863-23.58c-5.068-7.971-7.909-12.441-12.977-20.412l23.44-105.236c7.971-5.068,12.441-7.909,20.412-12.976l105.865,23.579,12.976,20.412L714.5,350.057Z" transform="translate(-575.245 -200.829)" fill="#f29100"/>
              <rect id="Rectangle_162" data-name="Rectangle 162" width="110.78" height="110.78" transform="matrix(0.976, 0.217, -0.217, 0.976, 39.323, 14.995)" fill="#b56c00"/>
              <g id="Group_90" data-name="Group 90" transform="translate(0.001)">
                <path id="Path_85" data-name="Path 85" d="M686.11,218.2l-2.263,15.5,15.239,4.913Z" transform="translate(-536.394 -194.617)" fill="#b56c00"/>
                <path id="Path_86" data-name="Path 86" d="M612.921,200.83l-4.529,15-15.884-2.019Z" transform="translate(-569.07 -200.83)" fill="#b56c00"/>
                <path id="Path_87" data-name="Path 87" d="M588.222,308.308l2.263-15.5L575.245,287.9Z" transform="translate(-575.245 -169.682)" fill="#fc8e53"/>
                <path id="Path_88" data-name="Path 88" d="M662.774,324.247l4.529-15,15.884,2.019Z" transform="translate(-543.933 -162.042)" fill="#fc8e53"/>
              </g>
              <g id="Group_94" data-name="Group 94" transform="translate(44.857 25.95)">
                <g id="Group_91" data-name="Group 91">
                  <path id="Path_89" data-name="Path 89" d="M619.4,219.942l-11.119,11.835,4.691,15.546,15.808,3.711L639.9,239.2l-4.691-15.546Zm10.609,21.106a8.121,8.121,0,1,1-.359-11.478A8.122,8.122,0,0,1,630.011,241.048Z" transform="translate(-608.283 -219.942)" fill="#023c48"/>
                </g>
                <g id="Group_92" data-name="Group 92" transform="translate(42.81 15.074)">
                  <path id="Path_90" data-name="Path 90" d="M646.915,231.044l-7.1,7.559,3,9.931,10.1,2.371,7.1-7.56-3-9.931Zm6.776,13.481a5.187,5.187,0,1,1-.229-7.332A5.189,5.189,0,0,1,653.692,244.525Z" transform="translate(-639.813 -231.044)" fill="#023c48"/>
                </g>
                <g id="Group_93" data-name="Group 93" transform="translate(68.216 21.847)">
                  <path id="Path_91" data-name="Path 91" d="M665.627,236.033l-7.1,7.56,3,9.931,10.1,2.371,7.1-7.56-3-9.931Zm6.777,13.482a5.187,5.187,0,1,1-.229-7.332A5.187,5.187,0,0,1,672.4,249.515Z" transform="translate(-658.525 -236.033)" fill="#023c48"/>
                </g>
              </g>
            </g>
            <g id="Group_96" data-name="Group 96" transform="translate(117.548 127.263)">
              <rect id="Rectangle_163" data-name="Rectangle 163" width="25.993" height="6.27" transform="translate(27.066 11.771) rotate(-167.444)" fill="#f29100"/>
              <rect id="Rectangle_164" data-name="Rectangle 164" width="25.993" height="6.27" transform="matrix(-0.976, -0.217, 0.217, -0.976, 25.371, 19.379)" fill="#f29100"/>
            </g>
            <g id="Group_102" data-name="Group 102" transform="translate(112.659 96.892)">
              <path id="Path_232" data-name="Path 232" d="M0,0H48.894V13.71H0Z" transform="translate(2.981) rotate(12.556)" fill="#023c48"/>
              <g id="Group_101" data-name="Group 101" transform="translate(3.763 2.789)">
                <rect id="Rectangle_166" data-name="Rectangle 166" width="42.085" height="9.587" transform="translate(2.084) rotate(12.556)" fill="#e84e1b"/>
                <g id="Group_100" data-name="Group 100" transform="translate(1.76 1.026)">
                  <g id="Group_97" data-name="Group 97">
                    <rect id="Rectangle_167" data-name="Rectangle 167" width="1.656" height="6.38" transform="translate(1.387 0) rotate(12.558)" fill="#e84e1b"/>
                    <rect id="Rectangle_168" data-name="Rectangle 168" width="1.656" height="6.38" transform="translate(3.162 2.103) rotate(12.558)" fill="#e84e1b"/>
                    <rect id="Rectangle_169" data-name="Rectangle 169" width="1.656" height="6.38" transform="translate(5.662 0.952) rotate(12.558)" fill="#e84e1b"/>
                    <rect id="Rectangle_170" data-name="Rectangle 170" width="1.656" height="6.38" transform="translate(7.436 3.055) rotate(12.558)" fill="#e84e1b"/>
                    <rect id="Rectangle_171" data-name="Rectangle 171" width="1.656" height="6.38" transform="translate(9.936 1.904) rotate(12.555)" fill="#e84e1b"/>
                    <rect id="Rectangle_172" data-name="Rectangle 172" width="1.656" height="6.38" transform="translate(11.711 4.007) rotate(12.555)" fill="#e84e1b"/>
                    <rect id="Rectangle_173" data-name="Rectangle 173" width="1.656" height="6.38" transform="matrix(0.976, 0.217, -0.217, 0.976, 14.21, 2.856)" fill="#e84e1b"/>
                    <rect id="Rectangle_174" data-name="Rectangle 174" width="1.656" height="6.38" transform="matrix(0.976, 0.217, -0.217, 0.976, 15.985, 4.959)" fill="#e84e1b"/>
                    <rect id="Rectangle_175" data-name="Rectangle 175" width="1.656" height="6.38" transform="translate(18.485 3.808) rotate(12.559)" fill="#e84e1b"/>
                    <rect id="Rectangle_176" data-name="Rectangle 176" width="1.656" height="6.38" transform="translate(20.26 5.911) rotate(12.56)" fill="#e84e1b"/>
                  </g>
                  <g id="Group_99" data-name="Group 99" transform="translate(21.358 4.757)">
                    <rect id="Rectangle_177" data-name="Rectangle 177" width="1.656" height="6.38" transform="translate(1.387 0) rotate(12.558)" fill="#e84e1b"/>
                    <rect id="Rectangle_178" data-name="Rectangle 178" width="1.656" height="6.38" transform="translate(3.162 2.103) rotate(12.558)" fill="#e84e1b"/>
                    <rect id="Rectangle_179" data-name="Rectangle 179" width="1.656" height="6.38" transform="translate(5.661 0.952) rotate(12.555)" fill="#e84e1b"/>
                    <rect id="Rectangle_180" data-name="Rectangle 180" width="1.656" height="6.38" transform="translate(7.436 3.055) rotate(12.555)" fill="#e84e1b"/>
                    <rect id="Rectangle_181" data-name="Rectangle 181" width="1.656" height="6.38" transform="matrix(0.976, 0.217, -0.217, 0.976, 9.936, 1.904)" fill="#e84e1b"/>
                    <rect id="Rectangle_182" data-name="Rectangle 182" width="1.656" height="6.38" transform="matrix(0.976, 0.217, -0.217, 0.976, 11.711, 4.007)" fill="#e84e1b"/>
                    <rect id="Rectangle_183" data-name="Rectangle 183" width="1.656" height="6.38" transform="translate(14.21 2.856) rotate(12.559)" fill="#e84e1b"/>
                  </g>
                </g>
              </g>
            </g>
            <g id="Group_116" data-name="Group 116" transform="translate(116.992 62.046)">
              <path id="Path_94" data-name="Path 94" d="M658.709,166.453l-10.445,10.375,15.5,3.452Z" transform="translate(-633 -141.529)" fill="#023c48"/>
              <g id="Group_115" data-name="Group 115">
                <g id="Group_108" data-name="Group 108">
                  <g id="Group_105" data-name="Group 105" transform="translate(6.064 6.064)">
                    <g id="Group_103" data-name="Group 103" transform="translate(0 1.247)">
                      <rect id="Rectangle_184" data-name="Rectangle 184" width="10.97" height="2.859" transform="translate(0 5.885) rotate(-32.444)" fill="#f29100"/>
                    </g>
                    <g id="Group_104" data-name="Group 104" transform="translate(1.247)">
                      <rect id="Rectangle_185" data-name="Rectangle 185" width="10.97" height="2.859" transform="matrix(-0.536, -0.844, 0.844, -0.536, 5.885, 10.791)" fill="#f29100"/>
                    </g>
                  </g>
                  <g id="Group_106" data-name="Group 106" transform="translate(2.509 2.509)">
                    <path id="Path_95" data-name="Path 95" d="M645.875,167.631a8.95,8.95,0,1,1,10.683-6.79A8.961,8.961,0,0,1,645.875,167.631Zm3.69-16.564a8.02,8.02,0,1,0,6.084,9.572A8.028,8.028,0,0,0,649.565,151.067Z" transform="translate(-638.87 -149.944)" fill="#023c48"/>
                  </g>
                  <g id="Group_107" data-name="Group 107">
                    <path id="Path_96" data-name="Path 96" d="M645.991,170.74a11.458,11.458,0,1,1,13.675-8.694A11.471,11.471,0,0,1,645.991,170.74Zm4.779-21.462a10.529,10.529,0,1,0,7.988,12.566A10.542,10.542,0,0,0,650.771,149.279Z" transform="translate(-637.022 -148.096)" fill="#023c48"/>
                  </g>
                </g>
                <g id="Group_114" data-name="Group 114" transform="translate(32.866 7.32)">
                  <g id="Group_111" data-name="Group 111" transform="translate(6.064 6.064)">
                    <g id="Group_109" data-name="Group 109" transform="translate(0 1.247)">
                      <rect id="Rectangle_186" data-name="Rectangle 186" width="10.97" height="2.859" transform="translate(0 5.885) rotate(-32.443)" fill="#f29100"/>
                    </g>
                    <g id="Group_110" data-name="Group 110" transform="translate(1.247)">
                      <rect id="Rectangle_187" data-name="Rectangle 187" width="10.97" height="2.859" transform="translate(5.885 10.791) rotate(-122.444)" fill="#f29100"/>
                    </g>
                  </g>
                  <g id="Group_112" data-name="Group 112" transform="translate(2.509 2.508)">
                    <path id="Path_97" data-name="Path 97" d="M670.081,173.022a8.95,8.95,0,1,1,10.683-6.79A8.96,8.96,0,0,1,670.081,173.022Zm3.689-16.564a8.021,8.021,0,1,0,6.085,9.572A8.029,8.029,0,0,0,673.77,156.458Z" transform="translate(-663.076 -155.335)" fill="#023c48"/>
                  </g>
                  <g id="Group_113" data-name="Group 113">
                    <path id="Path_98" data-name="Path 98" d="M670.2,176.131a11.459,11.459,0,1,1,13.677-8.694A11.471,11.471,0,0,1,670.2,176.131Zm4.781-21.461a10.529,10.529,0,1,0,7.989,12.566A10.54,10.54,0,0,0,674.977,154.671Z" transform="translate(-661.228 -153.487)" fill="#023c48"/>
                  </g>
                </g>
              </g>
            </g>
            <g id="Group_117" data-name="Group 117" transform="translate(179.697 82.659)">
              <rect id="Rectangle_188" data-name="Rectangle 188" width="4.732" height="16.833" transform="translate(7.545 7.593) rotate(12.556)" fill="#023c48"/>
              <path id="Path_233" data-name="Path 233" d="M0,0H4.732V31.337H0Z" transform="matrix(0.976, 0.217, -0.217, 0.976, 6.813, 0)" fill="#81b3bd"/>
            </g>
            <g id="Group_118" data-name="Group 118" transform="translate(93.279 63.574)">
              <rect id="Rectangle_190" data-name="Rectangle 190" width="4.732" height="16.833" transform="translate(4.618 24.024) rotate(-167.444)" fill="#023c48"/>
              <rect id="Rectangle_191" data-name="Rectangle 191" width="4.732" height="31.337" transform="matrix(-0.976, -0.217, 0.217, -0.976, 5.351, 31.617)" fill="#81b3bd"/>
            </g>
            <g id="Group_121" data-name="Group 121" transform="translate(142.423)">
              <g id="Group_120" data-name="Group 120" transform="translate(3.944)">
                <g id="Group_119" data-name="Group 119" transform="translate(0 2.172)">
                  <path id="Path_99" data-name="Path 99" d="M665.242,145.511l-1.745-.388c2.549-.358,5.548-1.788,6.372-3.055a2.665,2.665,0,0,0,.377-2.278,27.191,27.191,0,0,1-6.81-.3,2.294,2.294,0,0,1-1.067-.39.779.779,0,0,1-.339-.82c.133-.542.919-.937,1.594-1.075,2.868-.585,4.987-.342,6.309.726a3.308,3.308,0,0,1,.854,1.039l.037-.005a8.948,8.948,0,0,0,3.886-1.158,2.07,2.07,0,0,0,1-2.554,2.255,2.255,0,0,0-.148-.273c-2.506.849-5.867,1-10.015.441-.311-.041-.665-.077-1.036-.115-1.859-.19-3.78-.382-4.073-1.422a1.44,1.44,0,0,1,.546-1.227c1.457-1.229,5.53-1.139,7.83-.978a16.666,16.666,0,0,1,4.364.773,6.823,6.823,0,0,1,2.644,1.6q.3-.122.578-.261a4.635,4.635,0,0,0,2.682-3.416,3.345,3.345,0,0,0-.11-1.388,16.055,16.055,0,0,1-3.946.707,48.1,48.1,0,0,1-12.566-.691q-3.23-.609-3.727-2.039c-.364-1.036.527-1.988,2.381-2.547a23.623,23.623,0,0,1,11.489-.31,12.266,12.266,0,0,1,5.754,2.553,5.236,5.236,0,0,1,1.046,1.3A3.914,3.914,0,0,0,681.614,125a4.611,4.611,0,0,0-1.86-4.134,13.719,13.719,0,0,0-7.689-2.6l-.516-.033.124-.449a33.732,33.732,0,0,0,.826-7.84,37.841,37.841,0,0,1,.464-5.951l.817.162a37.533,37.533,0,0,0-.455,5.842,36.475,36.475,0,0,1-.733,7.556,14.374,14.374,0,0,1,7.7,2.764,5.414,5.414,0,0,1,2.141,4.805,4.638,4.638,0,0,1-2.71,3.56,4.013,4.013,0,0,1,.182,1.817,5.344,5.344,0,0,1-3.081,3.958c-.164.083-.334.16-.508.235a2.61,2.61,0,0,1-1.1,3.726,9.6,9.6,0,0,1-4.152,1.282,3.365,3.365,0,0,1-.481,2.77A8.15,8.15,0,0,1,665.242,145.511Zm2.646-7.708a10.275,10.275,0,0,0-4.049.14,1.481,1.481,0,0,0-1,.54,1.413,1.413,0,0,0,.716.272,26.355,26.355,0,0,0,6.362.3,2.545,2.545,0,0,0-.519-.569A3.612,3.612,0,0,0,667.888,137.8Zm3.826-4.987a20.147,20.147,0,0,0-2.923-.383c-3.633-.257-6.334.039-7.223.789a.761.761,0,0,0-.31.6c.13.413,2.2.623,3.312.739.383.038.747.075,1.066.118a22.355,22.355,0,0,0,9.387-.33,6.257,6.257,0,0,0-2.11-1.195A10.609,10.609,0,0,0,671.714,132.816Zm.952-7.921-.212-.046a22.694,22.694,0,0,0-11.044.292c-.371.111-2.206.716-1.886,1.633.224.642,1.314,1.173,3.07,1.5a47.218,47.218,0,0,0,12.327.679,15.191,15.191,0,0,0,3.751-.672,4.41,4.41,0,0,0-.887-1.094A11.154,11.154,0,0,0,672.666,124.9Z" transform="translate(-658.657 -103.998)" fill="#f29100"/>
                </g>
                <path id="Path_100" data-name="Path 100" d="M672.578,105.192a2.5,2.5,0,1,0-2.918,1.644A2.375,2.375,0,0,0,672.578,105.192Z" transform="translate(-655.433 -102.398)" fill="#f29100"/>
              </g>
              <path id="Path_101" data-name="Path 101" d="M673.551,142.964a9.092,9.092,0,1,0-17.75-3.954C654.708,143.912,672.459,147.866,673.551,142.964Z" transform="translate(-655.752 -91.847)" fill="#81b3bd"/>
            </g>
          </g>
          <g id="Group_123" data-name="Group 123" transform="translate(194.937 18.808)">
            <path id="Path_102" data-name="Path 102" d="M696.684,146.881a.551.551,0,0,1-.422-.238,11.15,11.15,0,0,1,.887-13.412,11.554,11.554,0,0,1,7.8-3.735c.027-.091.056-.185.084-.276,1.3-4.087,4.7-8.244,9.378-8.326a11.03,11.03,0,0,1,5.2,1.412,10.347,10.347,0,0,1,6.567-5.8,10.624,10.624,0,0,1,9.645,2.95,22.315,22.315,0,0,1,5.181,8.709,50.38,50.38,0,0,1,2.741,12.148.555.555,0,1,1-1.1.11,49.242,49.242,0,0,0-2.683-11.882,21.252,21.252,0,0,0-4.9-8.275,9.513,9.513,0,0,0-8.611-2.683,9.4,9.4,0,0,0-5.863,5.259,21.716,21.716,0,0,1,10.324,14.5,7.029,7.029,0,0,1-.022,3.508,4.408,4.408,0,0,1-3.208,2.88,6.644,6.644,0,0,1-5.955-1.312c-2.739-2.429-3.333-6.324-3.548-9.447a23.161,23.161,0,0,1,1-9.643A10.024,10.024,0,0,0,714.43,122c-4.072.071-7.151,3.9-8.311,7.466a11.261,11.261,0,0,1,4.242.929,12.436,12.436,0,0,1,7.227,11.493,6.3,6.3,0,0,1-2.042,4.925,5.373,5.373,0,0,1-5.871.17,9.736,9.736,0,0,1-3.747-4.457,18.447,18.447,0,0,1-1.279-11.9,10.38,10.38,0,0,0-6.669,3.335,10.149,10.149,0,0,0-.805,12.045.553.553,0,0,1-.49.869Zm9.12-16.309a17.325,17.325,0,0,0,1.128,11.484,8.646,8.646,0,0,0,3.3,3.969,4.244,4.244,0,0,0,4.629-.077,5.429,5.429,0,0,0,1.62-4.081,11.3,11.3,0,0,0-6.561-10.449A10.4,10.4,0,0,0,705.8,130.571Zm14.358-6.694a22.387,22.387,0,0,0-.87,9.022c.2,2.911.74,6.529,3.176,8.692a5.5,5.5,0,0,0,4.926,1.071,3.34,3.34,0,0,0,2.445-2.151,6.03,6.03,0,0,0-.012-2.956A20.9,20.9,0,0,0,720.162,123.878Z" transform="translate(-694.43 -116.251)" fill="#f29100"/>
          </g>
          <g id="Group_124" data-name="Group 124" transform="translate(87.414 2.802)">
            <path id="Path_103" data-name="Path 103" d="M633.431,132.767a6.485,6.485,0,0,1-2-.444,7.061,7.061,0,0,1-3.705-3.574.115.115,0,0,1-.022,0c-2.621.11-5.718-1-6.743-3.7a6.569,6.569,0,0,1-.3-3.063,6.3,6.3,0,0,1-4.487-2.569,6.513,6.513,0,0,1-.311-6.185,13.409,13.409,0,0,1,3.875-4.718,29.929,29.929,0,0,1,6.266-4,.555.555,0,1,1,.477,1,28.884,28.884,0,0,0-6.035,3.849,12.388,12.388,0,0,0-3.565,4.308,5.411,5.411,0,0,0,.213,5.12,5.284,5.284,0,0,0,3.738,2.09,13.1,13.1,0,0,1,6.077-8.614,4.449,4.449,0,0,1,2.069-.722,2.891,2.891,0,0,1,2.441,1.3,4.174,4.174,0,0,1,.49,3.8c-.835,2.091-2.936,3.234-4.672,4a14.184,14.184,0,0,1-5.465,1.4,5.526,5.526,0,0,0,.225,2.607c.779,2.056,3.235,2.978,5.313,2.991a6.866,6.866,0,0,1-.255-2.342,7.6,7.6,0,0,1,5.109-6.535,3.951,3.951,0,0,1,3.345.171,3.366,3.366,0,0,1,1.375,3.47,5.986,5.986,0,0,1-1.794,3.1,11.169,11.169,0,0,1-6.17,3.121,5.92,5.92,0,0,0,2.916,2.658,5.786,5.786,0,0,0,6.607-1.891.555.555,0,1,1,.9.645A6.814,6.814,0,0,1,633.431,132.767Zm.543-13.166a3.99,3.99,0,0,0-1.458.221,6.468,6.468,0,0,0-4.353,5.555,5.754,5.754,0,0,0,.3,2.2,10.054,10.054,0,0,0,5.846-2.849,4.916,4.916,0,0,0,1.487-2.513,2.284,2.284,0,0,0-.869-2.333A2.013,2.013,0,0,0,633.974,119.6Zm-4.805-6.939c-.05,0-.1,0-.153,0a3.388,3.388,0,0,0-1.537.568,12.161,12.161,0,0,0-5.521,7.707,13.47,13.47,0,0,0,4.834-1.3c1.542-.678,3.4-1.675,4.087-3.392a3.063,3.063,0,0,0-.367-2.747A1.832,1.832,0,0,0,629.169,112.662Z" transform="translate(-615.238 -104.462)" fill="#f29100"/>
          </g>
        </g>
        <g id="Group_129" data-name="Group 129" transform="translate(0 323.777)">
          <g id="Group_127" data-name="Group 127" transform="translate(25.489)">
            <g id="Group_126" data-name="Group 126">
              <path id="Path_104" data-name="Path 104" d="M463.157,365.186q-1.64-3.092-3.375-6.015Z" transform="translate(-368.247 -307.586)" fill="#9dd7e3"/>
              <path id="Path_105" data-name="Path 105" d="M486.936,391.509l-3.082-18.824a149.606,149.606,0,0,0-17.538-23.841c-4,5.954-2.914,22.2-2.914,22.2-2.292-16.585-1.346-21.812-2.076-27.246-8.691-8.121-20.423-11.352-29.959-15.459,6.715,19.046,7.279,24.036,7.279,24.036-3.093-11.564-8.294-19.052-11.4-25.709-24.092-9.268-34.886-3.994-34.886-3.994,1.594,8.255,7.356,26.188,9.355,33.143,10.574,6.346,24.711,12,24.711,12-7.007-1.022-16.575-4.733-23.42-7.69,3.113,10.027,2.709,8.362,6.692,16.04,10.634,6.9,30.976,13.429,30.976,13.429-8.457-.618-20.833-4.85-27.627-7.386a113.869,113.869,0,0,0,26.974,31.118,212.436,212.436,0,0,0,21.053,4.123,78.938,78.938,0,0,1-16.54-.6c12.035,9.025,25.686,16.556,40.81,25.04l14.41,3.233.884-20.866c-.72-16.388-6.231-31.98-13.272-45.3Z" transform="translate(-392.365 -321.178)" fill="#9dd7e3"/>
            </g>
            <path id="Path_106" data-name="Path 106" d="M473.348,408.448c3.348,4.371,6.6,8.839,9.622,13.493a88.851,88.851,0,0,1,7.932,14.725l-.223.106a87.8,87.8,0,0,0-8.3-14.359c-3.135-4.523-6.494-8.854-9.948-13.09C465.543,400.831,458.281,392.7,451,384.6s-14.77-16.02-21.75-24.49c-3.492-4.229-6.937-8.514-10.241-12.931s-6.494-8.945-9.444-13.652l.191-.164c6.941,8.494,14.062,16.729,21.257,24.917,7.21,8.165,14.239,16.547,21.376,24.83C459.5,391.407,466.61,399.743,473.348,408.448Z" transform="translate(-386.214 -316.819)" fill="#fdebd1"/>
          </g>
          <g id="Group_128" data-name="Group 128" transform="translate(0 67.931)">
            <path id="Path_107" data-name="Path 107" d="M473.02,429.517c.163-20.167,1.466-28.661,0-35.318a111.822,111.822,0,0,0-36.432-17.6c10.3,22.608,7.753,38.584,7.753,38.584-.551-16.359-8.487-32.181-13.021-39.95a154.856,154.856,0,0,0-57.723-2.376c2.835,10.028,5.851,19.152,9.049,27.486C396.386,406.412,414.466,411,414.466,411c-8.775-.049-21-3.006-29.777-5.5a189.547,189.547,0,0,0,15.944,31.115c13.875,6.749,39.722,11.341,39.722,11.341-10.528.711-26.281-2.4-34.95-4.38a131.014,131.014,0,0,0,36.621,34.13,256.7,256.7,0,0,0,26.477,1.458c-5.8,1.458-13.4,2.012-20.525,2.149,15.831,9.161,33.505,16.173,53.1,24.115l18.163,1.513-1.088-26.211c-5.029-39.3-19.968-64.741-38.441-81.1C475.389,407.763,473.02,429.517,473.02,429.517Z" transform="translate(-373.592 -371.21)" fill="#f29100"/>
            <path id="Path_108" data-name="Path 108" d="M507.177,498.171a102.174,102.174,0,0,0-11.765-16.478c-4.35-5.1-8.96-9.917-13.675-14.6-9.413-9.4-19.246-18.273-29.106-27.117s-19.944-17.416-29.464-26.768c-4.763-4.669-9.472-9.416-14.023-14.353-4.565-4.916-8.968-10.031-13.109-15.393l.22-.238c9.473,9.39,19.144,18.425,28.9,27.388,9.772,8.934,19.342,18.168,29.038,27.259,9.673,9.116,19.336,18.278,28.582,27.967,4.6,4.872,9.089,9.882,13.315,15.163a103.929,103.929,0,0,1,11.351,17Z" transform="translate(-365.563 -366.912)" fill="#fdebd1"/>
          </g>
        </g>
        <path id="Path_109" data-name="Path 109" d="M879.1,266.386h-8.863a59.113,59.113,0,0,0-6.686-16.133l6.269-6.269a5.327,5.327,0,0,0,0-7.533l-12.905-12.9a5.325,5.325,0,0,0-7.531,0l-6.269,6.267a59.11,59.11,0,0,0-16.133-6.684v-8.863a5.326,5.326,0,0,0-5.327-5.325H803.4a5.326,5.326,0,0,0-5.326,5.325v8.863a59.109,59.109,0,0,0-16.133,6.684l-6.269-6.267a5.325,5.325,0,0,0-7.531,0l-12.905,12.9a5.327,5.327,0,0,0,0,7.533l6.269,6.269a59.117,59.117,0,0,0-6.685,16.133h-8.862a5.326,5.326,0,0,0-5.326,5.326v18.251a5.325,5.325,0,0,0,5.326,5.325h8.862a59.126,59.126,0,0,0,6.685,16.134l-6.269,6.269a5.325,5.325,0,0,0,0,7.531l12.905,12.905a5.325,5.325,0,0,0,7.531,0l6.269-6.269a59.154,59.154,0,0,0,16.133,6.686v8.862a5.327,5.327,0,0,0,5.326,5.326h18.251a5.326,5.326,0,0,0,5.327-5.326v-8.862a59.155,59.155,0,0,0,16.133-6.686l6.269,6.269a5.325,5.325,0,0,0,7.531,0l12.905-12.905a5.325,5.325,0,0,0,0-7.531l-6.269-6.269a59.122,59.122,0,0,0,6.686-16.134H879.1a5.325,5.325,0,0,0,5.325-5.325V271.712A5.326,5.326,0,0,0,879.1,266.386Zm-66.57,50.454a36,36,0,1,1,36-36A36,36,0,0,1,812.527,316.839Z" transform="translate(-242.285 -37.552)" fill="#f29100"/>
        <g id="Group_133" data-name="Group 133" transform="translate(552.419 280.21)">
          <g id="Group_131" data-name="Group 131" transform="translate(32.263 8.414)">
            <g id="Group_130" data-name="Group 130">
              <path id="Path_110" data-name="Path 110" d="M863.345,402.663q3.369-2.951,6.5-6Z" transform="translate(-783.067 -259.019)" fill="#a796ff"/>
              <path id="Path_111" data-name="Path 111" d="M868.32,441.266l22.756-8.413a178.564,178.564,0,0,0,24.388-29.512c-8.814-4.221-28.965.862-28.965.862,20.187-6.825,27.092-6.669,33.713-8.877,7.423-13.81,7.688-30.75,9.773-44.845-21.857,13.487-27.971,15.366-27.971,15.366,13.588-6.827,21.349-15.67,28.744-21.428,3.865-35.365-6.3-49.133-6.3-49.133-9.9,4.024-30.661,15.948-38.789,20.244-4.572,16.025-7.115,36.825-7.115,36.825-.986-9.917.587-23.968,2.094-34.089-11.643,6.519-9.674,5.59-18.069,12.794-5.248,16.228-6.881,45.8-6.881,45.8-1.969-11.835-.65-29.885.342-39.84-13.838,13.416-23.281,28.058-30.506,44.167,0,14.837,1.639,30.029,1.639,30.029-2.172-6.428-3.637-14.976-4.619-23.01-7.479,18.636-12.548,39.176-18.336,61.966l.6,20.643,26.624-3.378c20.449-4.607,38.335-15.667,52.856-28.34Z" transform="translate(-804.219 -295.287)" fill="#9dd7e3"/>
            </g>
            <path id="Path_112" data-name="Path 112" d="M837.787,426.283c-4.429,5.594-9.01,11.078-13.9,16.285a102.643,102.643,0,0,1-16.006,14.216l-.206-.284A101.907,101.907,0,0,0,823.1,441.858c4.688-5.333,9.064-10.934,13.287-16.646,8.478-11.4,16.376-23.239,24.237-35.1s15.419-23.959,23.838-35.481c4.2-5.764,8.491-11.472,12.992-17.017,4.479-5.56,9.177-10.953,14.16-16.072l.27.228c-8.466,11.472-16.544,23.137-24.539,34.9-7.963,11.772-16.258,23.34-24.391,35.038C854.794,403.377,846.584,415.043,837.787,426.283Z" transform="translate(-802.984 -285.895)" fill="#fdebd1"/>
          </g>
          <path id="Path_113" data-name="Path 113" d="M851.834,393.75q-1.544,2.831-3.284,5.659Zm-3.385,5.822c-7.5,12.137-17.734,23.866-31.189,31.593l-18.089,8.206-4.937-14.467c-.887-17.382-1.79-33.016-.573-47.831a91.572,91.572,0,0,0,8.294,15.264s-4.479-10.385-7.721-20.878a102.9,102.9,0,0,1,11.924-37.9c1.473,7.257,4.485,20.31,8.464,28.251,0,0-5.309-21.273-5.143-33.9,4.362-6.93,3.173-5.844,9.982-13,1.146,7.487,3.1,17.767,5.969,24.566,0,0-2.747-15.267-3.016-27.6,4.811-4.815,16.886-17.784,23.008-22.794,0,0,10.2,7.515,15.19,33.371-3.971,5.689-7.527,13.639-15.645,21.436,0,0,3.913-2.665,16.423-16.979,1.606,10.423,5.12,22.461,2.888,33.85-4.2,3.007-9.117,4.407-21.9,13.645,0,0,13.139-8,20.3-6.941a132.068,132.068,0,0,1-10.8,26.2L837.62,404.6ZM825.92,377.088c3.2-10.05,6.534-20.044,9.593-30.109,3.085-10.062,6.248-20.077,9.728-30.04l-.24-.1c-2.4,4.709-4.55,9.55-6.5,14.461-1.97,4.9-3.755,9.879-5.469,14.873-3.438,9.989-6.13,20.2-9.1,30.3s-5.967,20.2-9.472,30.122c-1.738,4.961-3.608,9.879-5.758,14.675a75.409,75.409,0,0,1-7.711,13.725l.208.156A75.874,75.874,0,0,0,809.4,421.6c2.322-4.751,4.364-9.629,6.274-14.554C819.444,397.172,822.7,387.129,825.92,377.088Z" transform="translate(-775.944 -289.09)" fill="#fc8e53"/>
          <g id="Group_132" data-name="Group 132" transform="translate(0 121.794)">
            <path id="Path_114" data-name="Path 114" d="M870.549,468.049c19.357,6.282,27.094,10.25,34,10.692a131.911,131.911,0,0,0,29.21-33.663c-25.23,4.175-39.752-3.388-39.752-3.388,15.933,4.365,33.835.663,42.841-1.837a192.831,192.831,0,0,0,21.724-61.061c-10.608,0-20.406.462-29.505,1.362-10.472,12.871-20.973,30.833-20.973,30.833,3-9.377,9.965-21.565,15.32-30.2a184.974,184.974,0,0,0-35.32,7.64C876.922,401.231,863.8,427.5,863.8,427.5c2.862-11.484,11.163-27.4,15.986-36.079A142.155,142.155,0,0,0,834.6,420.284c-5.837,13.482-10.32,27.895-10.32,27.895.549-6.643,2.577-14.954,4.843-22.617-14.149,14.169-26.851,30.962-41.094,49.532l-7.572,18.981,25.6,6.774c39.527,6.52,69.044-1.765,91.012-16.581C890.691,477.173,870.549,468.049,870.549,468.049Z" transform="translate(-780.457 -378.793)" fill="#f29100"/>
            <path id="Path_115" data-name="Path 115" d="M784.628,483.7a103.968,103.968,0,0,0,19.823-7.6c6.372-3.112,12.563-6.585,18.66-10.214,12.214-7.229,24.07-15.064,35.9-22.939s23.479-16.072,35.687-23.429c6.1-3.684,12.254-7.284,18.537-10.661,6.27-3.4,12.676-6.561,19.231-9.368l.156.307c-12.229,7.3-24.183,14.909-36.1,22.638-11.891,7.753-24,15.2-36.018,22.824-12.031,7.593-24.1,15.159-36.545,22.122-6.239,3.446-12.573,6.734-19.079,9.658a104.665,104.665,0,0,1-20.183,7Z" transform="translate(-778.965 -371.389)" fill="#fdeab1"/>
          </g>
        </g>
        <path id="Path_116" data-name="Path 116" d="M614.516,278.375h-14.14a94.344,94.344,0,0,0-10.667-25.739l10-10a8.5,8.5,0,0,0,0-12.016l-20.589-20.589a8.5,8.5,0,0,0-12.016,0l-10,10a94.369,94.369,0,0,0-25.739-10.666V195.227a8.5,8.5,0,0,0-8.5-8.5H493.751a8.5,8.5,0,0,0-8.5,8.5v14.138a94.369,94.369,0,0,0-25.739,10.666l-10-10a8.5,8.5,0,0,0-12.016,0l-20.59,20.589a8.5,8.5,0,0,0,0,12.016l10,10a94.339,94.339,0,0,0-10.665,25.739H402.1a8.5,8.5,0,0,0-8.5,8.5V315.99a8.5,8.5,0,0,0,8.5,8.5h14.14a94.321,94.321,0,0,0,10.665,25.739l-10,10a8.5,8.5,0,0,0,0,12.016l20.59,20.59a8.5,8.5,0,0,0,12.016,0l10-10A94.321,94.321,0,0,0,485.254,393.5v14.14a8.5,8.5,0,0,0,8.5,8.5H522.87a8.5,8.5,0,0,0,8.5-8.5V393.5a94.321,94.321,0,0,0,25.739-10.665l10,10a8.5,8.5,0,0,0,12.016,0l20.589-20.59a8.5,8.5,0,0,0,0-12.016l-10-10a94.326,94.326,0,0,0,10.667-25.739h14.14a8.5,8.5,0,0,0,8.5-8.5V286.874A8.5,8.5,0,0,0,614.516,278.375ZM508.31,358.869a57.438,57.438,0,1,1,57.438-57.438A57.438,57.438,0,0,1,508.31,358.869Z" transform="translate(-366.431 -45.499)" fill="#f29100"/>
        <g id="Group_137" data-name="Group 137" transform="translate(23.599 228.461)">
          <g id="Group_134" data-name="Group 134" transform="translate(87.188)">
            <path id="Path_231" data-name="Path 231" d="M17.307,0H457.9A17.307,17.307,0,0,1,475.2,17.307v281.67H0V17.307A17.307,17.307,0,0,1,17.307,0Z" fill="#023c48"/>
            <rect id="Rectangle_193" data-name="Rectangle 193" width="430.091" height="251.272" transform="translate(22.556 21.894)" fill="#8ca3a7"/>
          </g>
          <g id="Group_136" data-name="Group 136" transform="translate(0 298.977)">
            <path id="Path_117" data-name="Path 117" d="M1040.551,544.912H390.973l87.188-73.735h475.2Z" transform="translate(-390.973 -471.177)" fill="rgba(2,60,72,0.64)"/>
            <path id="Rectangle_194" data-name="Rectangle 194" d="M0,0H649.578a0,0,0,0,1,0,0V10.949a17.084,17.084,0,0,1-17.084,17.084H17.084A17.084,17.084,0,0,1,0,10.949V0A0,0,0,0,1,0,0Z" transform="translate(0 73.735)" fill="#023c48"/>
            <g id="Group_135" data-name="Group 135" transform="translate(88.663 10.363)">
              <path id="Path_118" data-name="Path 118" d="M507.932,488.39h-26.3a.9.9,0,0,1-.622-1.561l8.209-7.77a.9.9,0,0,1,.622-.248h25.128a.906.906,0,0,1,.671,1.513l-7.033,7.77A.905.905,0,0,1,507.932,488.39Z" transform="translate(-447.528 -478.81)" fill="#fef3f9"/>
              <path id="Path_119" data-name="Path 119" d="M538.675,488.39H512.114a.9.9,0,0,1-.694-1.485l6.516-7.772a.906.906,0,0,1,.694-.323h25.384a.905.905,0,0,1,.747,1.417l-5.34,7.77A.9.9,0,0,1,538.675,488.39Z" transform="translate(-436.622 -478.81)" fill="#fef3f9"/>
              <path id="Path_120" data-name="Path 120" d="M569.388,488.39H542.613a.905.905,0,0,1-.77-1.382l4.823-7.77a.905.905,0,0,1,.768-.428h25.6a.906.906,0,0,1,.82,1.29l-3.647,7.77A.9.9,0,0,1,569.388,488.39Z" transform="translate(-425.711 -478.81)" fill="#fef3f9"/>
              <path id="Path_121" data-name="Path 121" d="M600.062,488.39H573.131a.9.9,0,0,1-.84-1.242l3.13-7.77a.9.9,0,0,1,.839-.568h25.755a.9.9,0,0,1,.877,1.126l-1.951,7.77A.906.906,0,0,1,600.062,488.39Z" transform="translate(-414.793 -478.81)" fill="#fef3f9"/>
              <path id="Path_122" data-name="Path 122" d="M630.687,488.39H603.673a.9.9,0,0,1-.889-1.069l1.434-7.77a.907.907,0,0,1,.891-.741h25.838a.9.9,0,0,1,.9.935l-.258,7.77A.905.905,0,0,1,630.687,488.39Z" transform="translate(-403.866 -478.81)" fill="#fef3f9"/>
              <path id="Path_123" data-name="Path 123" d="M661.33,488.39H634.315a.905.905,0,0,1-.9-.874l-.259-7.77a.906.906,0,0,1,.9-.935h25.839a.9.9,0,0,1,.889.741l1.435,7.77A.9.9,0,0,1,661.33,488.39Z" transform="translate(-392.997 -478.81)" fill="#fef3f9"/>
              <path id="Path_124" data-name="Path 124" d="M692.3,488.39H665.365a.9.9,0,0,1-.877-.684l-1.952-7.77a.905.905,0,0,1,.877-1.126h25.756a.9.9,0,0,1,.839.568l3.128,7.77A.9.9,0,0,1,692.3,488.39Z" transform="translate(-382.495 -478.81)" fill="#fef3f9"/>
              <path id="Path_125" data-name="Path 125" d="M723.22,488.39H696.444a.9.9,0,0,1-.819-.52l-3.646-7.77a.9.9,0,0,1,.819-1.29h25.6a.906.906,0,0,1,.77.428l4.821,7.77A.9.9,0,0,1,723.22,488.39Z" transform="translate(-371.983 -478.81)" fill="#fef3f9"/>
              <path id="Path_126" data-name="Path 126" d="M754.109,488.39H727.548A.9.9,0,0,1,726.8,488l-5.34-7.77a.905.905,0,0,1,.745-1.417h25.384a.907.907,0,0,1,.694.323L754.8,486.9A.9.9,0,0,1,754.109,488.39Z" transform="translate(-361.462 -478.81)" fill="#fef3f9"/>
              <path id="Path_127" data-name="Path 127" d="M784.972,488.39h-26.3a.9.9,0,0,1-.671-.3l-7.033-7.77a.9.9,0,0,1,.671-1.513h25.126a.9.9,0,0,1,.622.248l8.21,7.77A.9.9,0,0,1,784.972,488.39Z" transform="translate(-350.934 -478.81)" fill="#fef3f9"/>
              <path id="Path_128" data-name="Path 128" d="M498.833,499.47h-28.5a.9.9,0,0,1-.623-1.561l9.759-9.237a.9.9,0,0,1,.622-.248h27.1a.905.905,0,0,1,.671,1.513l-8.361,9.237A.9.9,0,0,1,498.833,499.47Z" transform="translate(-451.569 -475.371)" fill="#fef3f9"/>
              <path id="Path_129" data-name="Path 129" d="M531.907,499.47h-28.76a.9.9,0,0,1-.692-1.485l7.745-9.238a.906.906,0,0,1,.694-.323h27.361a.905.905,0,0,1,.745,1.418l-6.348,9.237A.9.9,0,0,1,531.907,499.47Z" transform="translate(-439.83 -475.371)" fill="#fef3f9"/>
              <path id="Path_130" data-name="Path 130" d="M564.95,499.47H535.977a.905.905,0,0,1-.77-1.382l5.732-9.237a.906.906,0,0,1,.77-.428h27.574a.9.9,0,0,1,.819,1.29l-4.334,9.237A.9.9,0,0,1,564.95,499.47Z" transform="translate(-428.085 -475.371)" fill="#fef3f9"/>
              <path id="Path_131" data-name="Path 131" d="M488.241,512.4h-31.06a.9.9,0,0,1-.622-1.561l11.693-11.068a.907.907,0,0,1,.622-.247h29.384a.9.9,0,0,1,.671,1.512L488.911,512.1A.9.9,0,0,1,488.241,512.4Z" transform="translate(-456.274 -471.4)" fill="#fef3f9"/>
              <path id="Path_132" data-name="Path 132" d="M524.027,512.4H492.709a.9.9,0,0,1-.694-1.485l9.282-11.068a.9.9,0,0,1,.694-.323h29.641a.9.9,0,0,1,.747,1.417l-7.606,11.067A.9.9,0,0,1,524.027,512.4Z" transform="translate(-443.564 -471.4)" fill="#fef3f9"/>
              <path id="Path_133" data-name="Path 133" d="M559.783,512.4H528.251a.905.905,0,0,1-.768-1.382l6.869-11.067a.905.905,0,0,1,.768-.428h29.857a.9.9,0,0,1,.819,1.288L560.6,511.88A.9.9,0,0,1,559.783,512.4Z" transform="translate(-430.849 -471.4)" fill="#fef3f9"/>
              <path id="Path_134" data-name="Path 134" d="M597.955,499.47h-29.13a.9.9,0,0,1-.839-1.242l3.719-9.237a.906.906,0,0,1,.839-.568h27.732a.9.9,0,0,1,.877,1.126l-2.32,9.237A.9.9,0,0,1,597.955,499.47Z" transform="translate(-416.333 -475.371)" fill="#fef3f9"/>
              <path id="Path_135" data-name="Path 135" d="M740.579,512.4H563.813a.9.9,0,0,1-.839-1.242l4.456-11.068a.9.9,0,0,1,.839-.566H736.123a.9.9,0,0,1,.839.566l4.456,11.068A.9.9,0,0,1,740.579,512.4Z" transform="translate(-418.127 -471.4)" fill="#fef3f9"/>
              <path id="Path_136" data-name="Path 136" d="M630.91,499.47H601.7a.9.9,0,0,1-.889-1.069l1.705-9.237a.907.907,0,0,1,.891-.741h27.813a.9.9,0,0,1,.9.935l-.307,9.237A.905.905,0,0,1,630.91,499.47Z" transform="translate(-404.573 -475.371)" fill="#fef3f9"/>
              <path id="Path_137" data-name="Path 137" d="M663.9,499.47H634.684a.905.905,0,0,1-.9-.874l-.308-9.237a.906.906,0,0,1,.906-.935H662.19a.905.905,0,0,1,.889.741l1.707,9.237A.905.905,0,0,1,663.9,499.47Z" transform="translate(-392.883 -475.371)" fill="#fef3f9"/>
              <path id="Path_138" data-name="Path 138" d="M697.278,499.47H668.149a.9.9,0,0,1-.877-.684l-2.322-9.237a.906.906,0,0,1,.878-1.126h27.731a.9.9,0,0,1,.839.568l3.719,9.237A.9.9,0,0,1,697.278,499.47Z" transform="translate(-381.631 -475.371)" fill="#fef3f9"/>
              <path id="Path_139" data-name="Path 139" d="M730.617,499.47H701.644a.905.905,0,0,1-.82-.52l-4.334-9.237a.906.906,0,0,1,.82-1.29h27.574a.9.9,0,0,1,.768.428l5.732,9.237A.9.9,0,0,1,730.617,499.47Z" transform="translate(-370.369 -475.371)" fill="#fef3f9"/>
              <path id="Path_140" data-name="Path 140" d="M763.92,499.47H735.161a.907.907,0,0,1-.747-.392l-6.346-9.237a.9.9,0,0,1,.745-1.418h27.36a.907.907,0,0,1,.694.323l7.746,9.238A.9.9,0,0,1,763.92,499.47Z" transform="translate(-359.098 -475.371)" fill="#fef3f9"/>
              <path id="Path_141" data-name="Path 141" d="M769.316,505.188H739.09a.906.906,0,0,1-.745-.392L735.7,500.94a.9.9,0,0,1,.745-1.417h29.642a.906.906,0,0,1,.694.323l3.233,3.856A.9.9,0,0,1,769.316,505.188Z" transform="translate(-356.37 -471.4)" fill="#fef3f9"/>
              <path id="Path_142" data-name="Path 142" d="M774.139,510.619H742.823a.907.907,0,0,1-.747-.392l-2.96-4.307a.9.9,0,0,1,.747-1.417h30.665a.906.906,0,0,1,.694.323l3.612,4.308A.9.9,0,0,1,774.139,510.619Z" transform="translate(-355.146 -469.619)" fill="#fef3f9"/>
              <path id="Path_143" data-name="Path 143" d="M809.847,510.619H778.788a.9.9,0,0,1-.671-.3l-3.9-4.308a.9.9,0,0,1,.671-1.511H805.3a.907.907,0,0,1,.622.247l4.551,4.308A.9.9,0,0,1,809.847,510.619Z" transform="translate(-342.615 -469.619)" fill="#fef3f9"/>
              <path id="Path_144" data-name="Path 144" d="M738.406,510.619H706.874a.9.9,0,0,1-.819-.52l-2.022-4.308a.9.9,0,0,1,.82-1.288h30.879a.9.9,0,0,1,.769.428l2.673,4.307A.9.9,0,0,1,738.406,510.619Z" transform="translate(-367.67 -469.619)" fill="#fef3f9"/>
              <path id="Path_145" data-name="Path 145" d="M797.2,499.47H768.7a.9.9,0,0,1-.671-.3l-8.361-9.237a.9.9,0,0,1,.671-1.513h27.1a.9.9,0,0,1,.623.248l9.758,9.237A.9.9,0,0,1,797.2,499.47Z" transform="translate(-347.822 -475.371)" fill="#fef3f9"/>
            </g>
          </g>
        </g>
        <g id="Group_138" data-name="Group 138" transform="translate(183.308 290.598)">
          <path id="Path_146" data-name="Path 146" d="M776.454,384.019a9.029,9.029,0,0,1-2.559,6.54q-2.562,2.639-7.424,2.638h-4.863v13.768q0,11.246-11.519,11.245-9.733,0-9.728-12.161V393.2H697.61q-14.849,0-14.847-8.031a14.293,14.293,0,0,1,2.432-7.229q2.432-4.012,3.969-6.309l33.789-52.321a30.582,30.582,0,0,1,8.577-8.49,19.38,19.38,0,0,1,10.368-2.754q9.466,0,14.59,4.819t5.12,16.062v45.9h4.863q4.862,0,7.424,2.752A9.159,9.159,0,0,1,776.454,384.019Zm-36.094-9.178V327.568l-29.7,47.273Z" transform="translate(-446.295 -292.69)" fill="#fff"/>
          <path id="Path_147" data-name="Path 147" d="M602.292,384.019a9.029,9.029,0,0,1-2.559,6.54q-2.564,2.639-7.424,2.638h-4.863v13.768q0,11.246-11.521,11.245-9.731,0-9.727-12.161V393.2h-42.75q-14.849,0-14.847-8.031a14.293,14.293,0,0,1,2.432-7.229q2.43-4.012,3.967-6.309l33.79-52.321a30.6,30.6,0,0,1,8.576-8.49,19.387,19.387,0,0,1,10.368-2.754q9.468,0,14.592,4.819t5.12,16.062v45.9h4.863q4.859,0,7.424,2.752A9.159,9.159,0,0,1,602.292,384.019ZM566.2,374.841V327.568l-29.7,47.273Z" transform="translate(-508.601 -292.69)" fill="#fff"/>
          <path id="Path_148" data-name="Path 148" d="M690.354,352.168h-6.8a45.416,45.416,0,0,0-5.134-12.387l4.813-4.813a4.089,4.089,0,0,0,0-5.783l-9.907-9.909a4.091,4.091,0,0,0-5.784,0l-4.812,4.813a45.391,45.391,0,0,0-12.387-5.132v-6.8a4.089,4.089,0,0,0-4.09-4.088H632.239a4.088,4.088,0,0,0-4.089,4.088v6.8a45.37,45.37,0,0,0-12.387,5.132l-4.813-4.813a4.089,4.089,0,0,0-5.783,0l-9.909,9.909a4.089,4.089,0,0,0,0,5.783l4.813,4.813a45.371,45.371,0,0,0-5.132,12.387h-6.805a4.089,4.089,0,0,0-4.089,4.09v14.012a4.09,4.09,0,0,0,4.089,4.089h6.805a45.39,45.39,0,0,0,5.132,12.387l-4.813,4.812a4.091,4.091,0,0,0,0,5.784l9.909,9.907a4.089,4.089,0,0,0,5.783,0l4.813-4.813a45.377,45.377,0,0,0,12.387,5.134v6.8a4.089,4.089,0,0,0,4.089,4.09H646.25a4.09,4.09,0,0,0,4.09-4.09v-6.8a45.44,45.44,0,0,0,12.387-5.134l4.812,4.813a4.091,4.091,0,0,0,5.784,0l9.907-9.907a4.091,4.091,0,0,0,0-5.784l-4.813-4.812a45.435,45.435,0,0,0,5.134-12.387h6.8a4.089,4.089,0,0,0,4.089-4.089V356.257A4.089,4.089,0,0,0,690.354,352.168ZM639.245,390.9a27.642,27.642,0,1,1,27.641-27.641A27.642,27.642,0,0,1,639.245,390.9Z" transform="translate(-481.612 -292.69)" fill="#fff"/>
          <path id="Path_149" data-name="Path 149" d="M711.45,322.564l-3.565-.316a23.925,23.925,0,0,0-2.113-6.729l2.745-2.3a2.149,2.149,0,0,0,.269-3.029l-4.73-5.654a2.149,2.149,0,0,0-3.029-.269l-2.747,2.3a23.852,23.852,0,0,0-6.251-3.265l.318-3.565a2.151,2.151,0,0,0-1.952-2.333l-7.343-.653a2.152,2.152,0,0,0-2.333,1.952l-.316,3.565a23.84,23.84,0,0,0-6.729,2.113l-2.3-2.747a2.149,2.149,0,0,0-3.029-.269l-5.654,4.73a2.152,2.152,0,0,0-.269,3.03l2.3,2.745a23.9,23.9,0,0,0-3.265,6.251l-3.565-.316a2.149,2.149,0,0,0-2.333,1.952L654.9,327.1a2.151,2.151,0,0,0,1.953,2.333l3.565.318a23.854,23.854,0,0,0,2.113,6.729l-2.747,2.3a2.152,2.152,0,0,0-.269,3.03l4.73,5.652a2.151,2.151,0,0,0,3.031.269l2.745-2.3a23.94,23.94,0,0,0,6.251,3.267l-.316,3.564a2.151,2.151,0,0,0,1.953,2.334l7.341.652a2.149,2.149,0,0,0,2.333-1.952l.318-3.565a23.894,23.894,0,0,0,6.729-2.111l2.3,2.745a2.151,2.151,0,0,0,3.031.269l5.652-4.73a2.149,2.149,0,0,0,.269-3.029l-2.3-2.747a23.9,23.9,0,0,0,3.267-6.251l3.565.318a2.153,2.153,0,0,0,2.333-1.952l.652-7.343A2.15,2.15,0,0,0,711.45,322.564Zm-28.585,17.917a14.54,14.54,0,1,1,15.77-13.2A14.54,14.54,0,0,1,682.866,340.481Z" transform="translate(-456.265 -296.741)" fill="#fff"/>
        </g>
        <g id="Group_143" data-name="Group 143" transform="translate(251.412 446.097)">
          <g id="Group_139" data-name="Group 139" transform="translate(0 2.121)">
            <path id="Path_150" data-name="Path 150" d="M564.23,412.83a11.414,11.414,0,0,1,6.461,1.536,5.406,5.406,0,0,1,2.246,4.8,6.516,6.516,0,0,1-.6,2.916,5.052,5.052,0,0,1-1.743,1.981,8.077,8.077,0,0,1-2.792,1.13,17.631,17.631,0,0,1-3.768.363h-1.757v6.81h-3.517v-19.06a17.422,17.422,0,0,1,2.721-.377C562.476,412.863,563.394,412.83,564.23,412.83Zm.253,3.041q-1.342,0-2.2.084v6.585h1.7a8.641,8.641,0,0,0,3.906-.71,2.752,2.752,0,0,0,1.369-2.692,3.212,3.212,0,0,0-.363-1.591,2.593,2.593,0,0,0-1.006-1,4.709,4.709,0,0,0-1.521-.516A10.844,10.844,0,0,0,564.483,415.871Z" transform="translate(-558.761 -412.83)" fill="#fef3f9"/>
          </g>
          <g id="Group_140" data-name="Group 140" transform="translate(15.71 2.652)">
            <path id="Path_151" data-name="Path 151" d="M576.221,416.2a8.282,8.282,0,0,1,2.819.418,4.52,4.52,0,0,1,1.828,1.172,4.373,4.373,0,0,1,.976,1.829,8.93,8.93,0,0,1,.293,2.357v8.847q-.78.169-2.358.406a24.167,24.167,0,0,1-3.557.236,10.7,10.7,0,0,1-2.4-.251,5.026,5.026,0,0,1-1.856-.809,3.816,3.816,0,0,1-1.2-1.451,5.024,5.024,0,0,1-.432-2.2,4.27,4.27,0,0,1,.487-2.122,4.034,4.034,0,0,1,1.327-1.409,5.723,5.723,0,0,1,1.94-.781,10.949,10.949,0,0,1,2.3-.238,10.813,10.813,0,0,1,1.172.069,11.192,11.192,0,0,1,1.311.238v-.558a4.4,4.4,0,0,0-.138-1.116,2.335,2.335,0,0,0-.489-.935,2.285,2.285,0,0,0-.922-.627,4,4,0,0,0-1.437-.223,12.775,12.775,0,0,0-2.148.167,9.454,9.454,0,0,0-1.591.39l-.42-2.734a13.774,13.774,0,0,1,1.87-.447A14.763,14.763,0,0,1,576.221,416.2Zm.278,12.586a12.585,12.585,0,0,0,2.372-.167V424.88a6.585,6.585,0,0,0-.809-.167,7.546,7.546,0,0,0-1.172-.084,7.791,7.791,0,0,0-1.13.084,3.5,3.5,0,0,0-1.033.307,1.885,1.885,0,0,0-.74.627,1.765,1.765,0,0,0-.278,1.018,1.789,1.789,0,0,0,.754,1.662A3.9,3.9,0,0,0,576.5,428.787Z" transform="translate(-570.332 -412.155)" fill="#fef3f9"/>
            <path id="Path_152" data-name="Path 152" d="M594.337,429.665q0,3.489-1.771,5.108t-5.43,1.618a14.969,14.969,0,0,1-2.608-.224,14.481,14.481,0,0,1-2.3-.585l.614-2.874a10.582,10.582,0,0,0,1.969.587,12.077,12.077,0,0,0,2.384.223,4.1,4.1,0,0,0,2.9-.836,3.306,3.306,0,0,0,.865-2.485v-.559a8.707,8.707,0,0,1-1.325.5,6.428,6.428,0,0,1-1.883.251,7.017,7.017,0,0,1-2.554-.447,5.338,5.338,0,0,1-1.981-1.312,5.985,5.985,0,0,1-1.284-2.163,8.962,8.962,0,0,1-.46-3,8.489,8.489,0,0,1,.489-2.93,6.266,6.266,0,0,1,1.423-2.288,6.494,6.494,0,0,1,2.274-1.479,8.2,8.2,0,0,1,3.043-.531,18.734,18.734,0,0,1,3.126.251q1.476.253,2.51.53Zm-9.405-6.2a4.46,4.46,0,0,0,.935,3.14,3.172,3.172,0,0,0,2.414.99,5.029,5.029,0,0,0,1.521-.223,4.377,4.377,0,0,0,1.158-.53v-7.564c-.242-.056-.54-.107-.892-.153a10.693,10.693,0,0,0-1.34-.069,3.408,3.408,0,0,0-2.819,1.214A4.949,4.949,0,0,0,584.932,423.469Z" transform="translate(-566.347 -412.14)" fill="#fef3f9"/>
            <path id="Path_153" data-name="Path 153" d="M593.517,423.932a9.2,9.2,0,0,1,.57-3.378,7.119,7.119,0,0,1,1.523-2.414,6.3,6.3,0,0,1,2.175-1.451,6.765,6.765,0,0,1,2.512-.487,6.016,6.016,0,0,1,4.7,1.87,8.09,8.09,0,0,1,1.688,5.582c0,.186,0,.4-.014.627s-.024.443-.042.627h-9.628a3.849,3.849,0,0,0,1.241,2.722,4.718,4.718,0,0,0,3.195.963,10.486,10.486,0,0,0,2.248-.224,9.211,9.211,0,0,0,1.6-.474l.447,2.763a5.466,5.466,0,0,1-.767.293c-.326.1-.7.194-1.116.28s-.87.152-1.354.208a12.632,12.632,0,0,1-1.479.084,8.955,8.955,0,0,1-3.35-.572,6.235,6.235,0,0,1-2.345-1.591,6.489,6.489,0,0,1-1.366-2.4A9.758,9.758,0,0,1,593.517,423.932Zm9.795-1.508a4.431,4.431,0,0,0-.2-1.325,3.183,3.183,0,0,0-.572-1.088,2.713,2.713,0,0,0-.922-.726,2.934,2.934,0,0,0-1.3-.266,3.042,3.042,0,0,0-1.369.293,3.138,3.138,0,0,0-.99.768,3.533,3.533,0,0,0-.629,1.088,5.973,5.973,0,0,0-.307,1.256Z" transform="translate(-562.038 -412.155)" fill="#fef3f9"/>
            <path id="Path_154" data-name="Path 154" d="M610.638,417.023a23.089,23.089,0,0,1,2.539-.53,21.949,21.949,0,0,1,3.461-.251,7.949,7.949,0,0,1,2.986.489,4.673,4.673,0,0,1,1.912,1.366,5.221,5.221,0,0,1,1,2.122,11.842,11.842,0,0,1,.293,2.721v8.2h-3.377v-7.675a10.981,10.981,0,0,0-.155-1.995,3.513,3.513,0,0,0-.5-1.34,1.994,1.994,0,0,0-.948-.752,4.014,4.014,0,0,0-1.465-.238,11.266,11.266,0,0,0-1.34.083c-.464.056-.809.1-1.032.14v11.777h-3.377Z" transform="translate(-555.913 -412.14)" fill="#fef3f9"/>
            <path id="Path_155" data-name="Path 155" d="M636.076,423.848a9.437,9.437,0,0,1-.5,3.153,6.964,6.964,0,0,1-1.424,2.428,6.412,6.412,0,0,1-2.219,1.564,7.185,7.185,0,0,1-2.859.558,7.088,7.088,0,0,1-2.847-.558,6.459,6.459,0,0,1-2.2-1.564A7.162,7.162,0,0,1,622.581,427a9.2,9.2,0,0,1-.516-3.153,9.084,9.084,0,0,1,.516-3.139,7.063,7.063,0,0,1,1.453-2.415,6.422,6.422,0,0,1,2.217-1.548,7.158,7.158,0,0,1,2.82-.544,7.251,7.251,0,0,1,2.831.544,6.23,6.23,0,0,1,2.219,1.548,7.161,7.161,0,0,1,1.438,2.415A9.051,9.051,0,0,1,636.076,423.848Zm-3.461,0a5.7,5.7,0,0,0-.935-3.447,3.315,3.315,0,0,0-5.218,0,5.7,5.7,0,0,0-.935,3.447,5.812,5.812,0,0,0,.935,3.488,3.292,3.292,0,0,0,5.218,0A5.813,5.813,0,0,0,632.615,423.848Z" transform="translate(-551.825 -412.155)" fill="#fef3f9"/>
            <path id="Path_156" data-name="Path 156" d="M634.829,413.779l3.377-.558v4.409H643.4v2.819h-5.192v5.944a4.321,4.321,0,0,0,.558,2.512,2.211,2.211,0,0,0,1.9.754,6.176,6.176,0,0,0,1.632-.2,11.14,11.14,0,0,0,1.131-.363l.558,2.679a12.706,12.706,0,0,1-1.536.517,8.4,8.4,0,0,1-2.232.265,7.084,7.084,0,0,1-2.61-.42,3.861,3.861,0,0,1-1.661-1.214,4.823,4.823,0,0,1-.863-1.925,11.9,11.9,0,0,1-.253-2.582Z" transform="translate(-547.258 -413.221)" fill="#fef3f9"/>
          </g>
          <g id="Group_141" data-name="Group 141" transform="translate(121.616)">
            <path id="Path_157" data-name="Path 157" d="M654.277,411.268a9.081,9.081,0,0,1,2.064.209,11.536,11.536,0,0,1,1.34.376l-.642,2.792a5.423,5.423,0,0,0-1.1-.364,6.3,6.3,0,0,0-1.355-.138,3.472,3.472,0,0,0-1.366.238,2.241,2.241,0,0,0-.895.656,2.506,2.506,0,0,0-.473,1.018,5.615,5.615,0,0,0-.141,1.3v.976h5.3v2.819h-5.3v11.777h-3.375V417.3a6.273,6.273,0,0,1,1.479-4.424A5.781,5.781,0,0,1,654.277,411.268Z" transform="translate(-648.333 -411.268)" fill="#fef3f9"/>
          </g>
          <g id="Group_142" data-name="Group 142" transform="translate(131.69)">
            <path id="Path_158" data-name="Path 158" d="M669.762,423.848a9.4,9.4,0,0,1-.5,3.153,6.963,6.963,0,0,1-1.423,2.428,6.423,6.423,0,0,1-2.219,1.564,7.187,7.187,0,0,1-2.861.558,7.092,7.092,0,0,1-2.847-.558,6.454,6.454,0,0,1-2.2-1.564A7.139,7.139,0,0,1,656.27,427a9.17,9.17,0,0,1-.517-3.153,9.054,9.054,0,0,1,.517-3.139,7.038,7.038,0,0,1,1.45-2.415,6.415,6.415,0,0,1,2.219-1.548,7.156,7.156,0,0,1,2.819-.544,7.252,7.252,0,0,1,2.832.544,6.235,6.235,0,0,1,2.22,1.548,7.181,7.181,0,0,1,1.436,2.415A9.084,9.084,0,0,1,669.762,423.848Zm-3.461,0a5.7,5.7,0,0,0-.934-3.447,3.317,3.317,0,0,0-5.219,0,5.7,5.7,0,0,0-.934,3.447,5.813,5.813,0,0,0,.934,3.488,3.293,3.293,0,0,0,5.219,0A5.812,5.812,0,0,0,666.3,423.848Z" transform="translate(-655.753 -409.503)" fill="#fef3f9"/>
            <path id="Path_159" data-name="Path 159" d="M680.657,430.617q-.978.253-2.539.517a20.771,20.771,0,0,1-3.432.265,7.587,7.587,0,0,1-2.945-.5,4.726,4.726,0,0,1-1.9-1.4,5.491,5.491,0,0,1-1.018-2.134,11.3,11.3,0,0,1-.307-2.721v-8.176h3.377v7.647a6.161,6.161,0,0,0,.684,3.348,2.673,2.673,0,0,0,2.386,1.006q.613,0,1.3-.056a6.915,6.915,0,0,0,1.018-.141v-11.8h3.377Z" transform="translate(-651.187 -409.408)" fill="#fef3f9"/>
            <path id="Path_160" data-name="Path 160" d="M680.623,417.023a23.16,23.16,0,0,1,2.539-.53,21.961,21.961,0,0,1,3.461-.251,7.949,7.949,0,0,1,2.986.489,4.664,4.664,0,0,1,1.912,1.366,5.239,5.239,0,0,1,1.006,2.122,11.915,11.915,0,0,1,.292,2.721v8.2h-3.377v-7.675a11.124,11.124,0,0,0-.153-1.995,3.515,3.515,0,0,0-.5-1.34,2,2,0,0,0-.949-.752,4,4,0,0,0-1.465-.238,11.284,11.284,0,0,0-1.34.083c-.464.056-.809.1-1.032.14v11.777h-3.377Z" transform="translate(-646.856 -409.489)" fill="#fef3f9"/>
            <path id="Path_161" data-name="Path 161" d="M705.194,432.477a19.861,19.861,0,0,1-2.524.558,19.639,19.639,0,0,1-3.195.251,8.561,8.561,0,0,1-3.1-.53,6.479,6.479,0,0,1-2.33-1.521,6.739,6.739,0,0,1-1.479-2.4,9.175,9.175,0,0,1-.516-3.168,10.7,10.7,0,0,1,.432-3.14,6.892,6.892,0,0,1,1.271-2.414,5.659,5.659,0,0,1,2.037-1.548,6.628,6.628,0,0,1,2.763-.544,6.339,6.339,0,0,1,1.87.251,8.571,8.571,0,0,1,1.4.558v-7l3.375-.558Zm-9.682-6.892a5.292,5.292,0,0,0,1.06,3.5,3.605,3.605,0,0,0,2.93,1.269,11.475,11.475,0,0,0,1.382-.071,9.365,9.365,0,0,0,.934-.153v-8.372a5.291,5.291,0,0,0-1.187-.572,4.607,4.607,0,0,0-1.576-.265,3.018,3.018,0,0,0-2.692,1.256A5.985,5.985,0,0,0,695.512,425.585Z" transform="translate(-642.768 -411.268)" fill="#fef3f9"/>
          </g>
        </g>
        <g id="Group_144" data-name="Group 144" transform="translate(9.205 7.803)">
          <path id="Path_162" data-name="Path 162" d="M380.371,89.536l70.9,12-5.656,23.813Z" transform="translate(-380.371 -88.073)" fill="#023c48"/>
          <path id="Path_163" data-name="Path 163" d="M380.371,89.536l59.405,18.028,5.838,17.787Z" transform="translate(-380.371 -88.073)" fill="#81b3bd"/>
          <path id="Path_164" data-name="Path 164" d="M380.371,89.921l88.274-1.463-17.374,13.465Z" transform="translate(-380.371 -88.458)" fill="#9dd7e3"/>
          <path id="Path_165" data-name="Path 165" d="M380.371,89.536l59.405,18.028-22.046,14.7Z" transform="translate(-380.371 -88.073)" fill="#9dd7e3"/>
        </g>
        <g id="Group_145" data-name="Group 145" transform="translate(674.259 223.29)">
          <path id="Path_166" data-name="Path 166" d="M933.044,274.091,877.072,259.32l-4.662,20.626Z" transform="translate(-869.401 -242.82)" fill="#023c48"/>
          <path id="Path_167" data-name="Path 167" d="M933.044,271.811l-49.836-6.117-10.8,11.972Z" transform="translate(-869.401 -240.54)" fill="#81b3bd"/>
          <path id="Path_168" data-name="Path 168" d="M933.837,278.439l-63.644-31.272,7.671,16.5Z" transform="translate(-870.193 -247.167)" fill="#9dd7e3"/>
          <path id="Path_169" data-name="Path 169" d="M930.2,271.811l-49.836-6.117,10.614,19.062Z" transform="translate(-866.555 -240.54)" fill="#9dd7e3"/>
        </g>
        <g id="Group_149" data-name="Group 149" transform="translate(87.367)">
          <g id="Group_146" data-name="Group 146" transform="translate(0 45.459)">
            <path id="Path_170" data-name="Path 170" d="M441.208,121.184a1.265,1.265,0,0,1-.963-.441c-.7-.819-1.39-1.662-2.043-2.509a1.267,1.267,0,0,1,2.008-1.546q.951,1.232,1.958,2.4a1.268,1.268,0,0,1-.96,2.094Z" transform="translate(-437.939 -116.192)" fill="#f29100"/>
          </g>
          <g id="Group_147" data-name="Group 147" transform="translate(6.372)">
            <path id="Path_171" data-name="Path 171" d="M550.782,220.088h-.023c-2.129-.038-4.3-.183-6.443-.43a1.266,1.266,0,1,1,.289-2.516c2.066.236,4.152.376,6.2.413a1.267,1.267,0,0,1-.023,2.534Zm-12.574-1.439a1.248,1.248,0,0,1-.262-.029c-2.089-.44-4.191-.984-6.246-1.617a1.267,1.267,0,0,1,.745-2.422c1.981.611,4.008,1.136,6.023,1.56a1.267,1.267,0,0,1-.261,2.508Zm-12.1-3.723a1.265,1.265,0,0,1-.479-.094c-1.984-.812-3.952-1.722-5.855-2.7a1.268,1.268,0,0,1,1.164-2.253c1.836.949,3.736,1.828,5.651,2.611a1.267,1.267,0,0,1-.481,2.44Zm-11.245-5.817a1.255,1.255,0,0,1-.679-.2c-1.818-1.155-3.594-2.4-5.282-3.7a1.268,1.268,0,0,1,1.549-2.007c1.626,1.257,3.34,2.459,5.092,3.574a1.266,1.266,0,0,1-.68,2.335Zm-10.017-7.735a1.261,1.261,0,0,1-.864-.341c-1.578-1.469-3.1-3.022-4.51-4.619a1.266,1.266,0,0,1,1.9-1.68c1.362,1.534,2.823,3.03,4.342,4.445a1.267,1.267,0,0,1-.864,2.194Zm-8.39-9.473a1.264,1.264,0,0,1-1.028-.524c-.921-1.271-1.8-2.591-2.625-3.921q-.458-.747-.895-1.5a1.266,1.266,0,1,1,2.191-1.27q.422.725.862,1.442c.786,1.276,1.633,2.544,2.519,3.764a1.268,1.268,0,0,1-.284,1.769A1.249,1.249,0,0,1,496.456,191.9Zm-6.343-10.949a1.267,1.267,0,0,1-1.155-.745c-.878-1.946-1.677-3.967-2.369-6.009a1.267,1.267,0,1,1,2.4-.815c.667,1.965,1.434,3.909,2.28,5.78a1.269,1.269,0,0,1-1.154,1.79Zm-4.079-11.982A1.267,1.267,0,0,1,484.8,168c-.494-2.076-.9-4.209-1.2-6.339a1.267,1.267,0,1,1,2.508-.358c.295,2.054.684,4.111,1.16,6.111a1.265,1.265,0,0,1-.938,1.525A1.23,1.23,0,0,1,486.034,168.97Zm30.856-7.492q-1.25,0-2.5-.022a1.268,1.268,0,0,1-1.244-1.29,1.25,1.25,0,0,1,1.29-1.245q3.141.055,6.277-.034a1.306,1.306,0,0,1,1.3,1.229,1.268,1.268,0,0,1-1.229,1.3Q518.841,161.478,516.89,161.478Zm-8.808-.272H508q-2.153-.13-4.3-.315-1.033-.088-2.071-.19a1.268,1.268,0,0,1,.25-2.523c.679.069,1.358.13,2.037.189q2.112.179,4.233.31a1.267,1.267,0,0,1-.075,2.531Zm18.993-.141a1.266,1.266,0,0,1-.1-2.528c2.118-.179,4.21-.415,6.221-.707a1.266,1.266,0,1,1,.364,2.506c-2.061.3-4.2.543-6.373.725C527.148,161.064,527.111,161.065,527.076,161.065Zm-31.607-1.117a1.157,1.157,0,0,1-.181-.014c-2.143-.305-4.266-.657-6.313-1.047a1.267,1.267,0,0,1,.472-2.489c2.009.382,4.095.728,6.2,1.026a1.268,1.268,0,0,1-.177,2.523Zm44.142-.717a1.267,1.267,0,0,1-.265-2.505c2.054-.443,4.09-.96,6.049-1.537a1.267,1.267,0,1,1,.717,2.43c-2.019.6-4.117,1.13-6.233,1.583A1.2,1.2,0,0,1,539.61,159.231Zm-56.595-1.654a1.27,1.27,0,0,1-.3-.037c-2.1-.509-4.183-1.073-6.183-1.673a1.267,1.267,0,0,1,.729-2.428c1.845.554,3.761,1.077,5.7,1.553-.058-1.169-.087-2.357-.087-3.534q0-1.336.049-2.671a1.253,1.253,0,0,1,1.313-1.218,1.269,1.269,0,0,1,1.221,1.313c-.033.857-.049,1.718-.049,2.576,0,1.215.033,2.443.1,3.647a1.268,1.268,0,0,1-1.2,1.332h-.031a1.475,1.475,0,0,1-.03.168A1.268,1.268,0,0,1,483.015,157.577Zm68.736-1.942a1.267,1.267,0,0,1-.456-2.449c1.154-.447,2.293-.921,3.384-1.408q1.165-.519,2.311-1.089a1.268,1.268,0,0,1,1.128,2.27q-1.193.591-2.4,1.132c-1.131.505-2.31,1-3.5,1.458A1.258,1.258,0,0,1,551.751,155.636Zm-80.866-1.715a1.235,1.235,0,0,1-.437-.079c-2.033-.747-4.034-1.557-5.948-2.409a1.267,1.267,0,0,1,1.029-2.316c1.864.83,3.814,1.618,5.794,2.348a1.267,1.267,0,0,1-.437,2.456Zm92.2-3.923a1.267,1.267,0,0,1-.673-2.341c1.757-1.1,3.47-2.3,5.094-3.553a1.267,1.267,0,0,1,1.551,2.005c-1.689,1.307-3.472,2.551-5.3,3.7A1.264,1.264,0,0,1,563.084,150ZM459.323,148.76a1.267,1.267,0,0,1-.6-.151c-1.912-1.025-3.777-2.124-5.546-3.265a1.267,1.267,0,0,1,1.374-2.129c1.712,1.105,3.518,2.168,5.37,3.161a1.267,1.267,0,0,1-.6,2.384Zm25.384-4.972c-.053,0-.107,0-.162-.01a1.267,1.267,0,0,1-1.1-1.417c.27-2.13.64-4.269,1.1-6.356a1.267,1.267,0,1,1,2.474.544c-.441,2.012-.8,4.075-1.058,6.13A1.268,1.268,0,0,1,484.707,143.788Zm88.378-1.544a1.267,1.267,0,0,1-.876-2.185,56.869,56.869,0,0,0,4.244-4.514,1.267,1.267,0,1,1,1.94,1.631,59.277,59.277,0,0,1-4.434,4.718A1.267,1.267,0,0,1,573.086,142.244ZM448.7,141.88a1.262,1.262,0,0,1-.778-.269c-1.708-1.332-3.355-2.748-4.9-4.209a1.267,1.267,0,1,1,1.743-1.838c1.483,1.4,3.067,2.767,4.711,4.05a1.267,1.267,0,0,1-.781,2.266Zm132.509-9.329a1.266,1.266,0,0,1-1.058-1.963,48.818,48.818,0,0,0,3.06-5.36,1.266,1.266,0,1,1,2.276,1.111,51.167,51.167,0,0,1-3.218,5.641A1.265,1.265,0,0,1,581.21,132.551Zm-93.785-1.126a1.263,1.263,0,0,1-1.207-1.651c.654-2.056,1.411-4.092,2.246-6.053a1.267,1.267,0,1,1,2.331.994c-.8,1.887-1.532,3.848-2.163,5.827A1.267,1.267,0,0,1,487.425,131.426Zm99.311-10.241a1.264,1.264,0,0,1-1.2-1.661,42.753,42.753,0,0,0,1.316-5.017c.063-.314.12-.629.174-.944a1.267,1.267,0,1,1,2.5.424c-.057.339-.121.676-.187,1.012a45.058,45.058,0,0,1-1.393,5.314A1.265,1.265,0,0,1,586.736,121.184Zm-94.342-1.4a1.268,1.268,0,0,1-1.111-1.876c1.016-1.853,2.128-3.666,3.3-5.388l.084-.124a1.268,1.268,0,0,1,2.083,1.446l-.069.1c-1.136,1.662-2.2,3.4-3.18,5.184A1.266,1.266,0,0,1,492.395,119.787Zm7.169-10.427a1.267,1.267,0,0,1-.967-2.085c1.375-1.623,2.861-3.208,4.415-4.714a1.266,1.266,0,1,1,1.764,1.818c-1.5,1.45-2.925,2.975-4.246,4.534A1.265,1.265,0,0,1,499.564,109.359Zm89.167-.627a1.267,1.267,0,0,1-1.265-1.214,19.3,19.3,0,0,0-.668-4.364q-.206-.733-.47-1.432a1.267,1.267,0,0,1,2.372-.893q.3.8.538,1.643a21.746,21.746,0,0,1,.76,4.941,1.266,1.266,0,0,1-1.213,1.318Zm-80.081-8.183a1.267,1.267,0,0,1-.793-2.255c1.669-1.336,3.424-2.612,5.219-3.8a1.267,1.267,0,0,1,1.394,2.117c-1.73,1.139-3.423,2.371-5.029,3.656A1.266,1.266,0,0,1,508.65,100.549Zm75.694-3.457a1.262,1.262,0,0,1-.982-.464,23.353,23.353,0,0,0-4.384-4.087,1.268,1.268,0,0,1,1.49-2.052,25.983,25.983,0,0,1,4.857,4.535,1.266,1.266,0,0,1-.98,2.068Zm-65.128-3.514a1.268,1.268,0,0,1-.6-2.384c1.886-1.01,3.841-1.951,5.813-2.793a1.268,1.268,0,0,1,1,2.331c-1.9.812-3.791,1.719-5.61,2.694A1.257,1.257,0,0,1,519.216,93.578Zm55.04-3.989a1.275,1.275,0,0,1-.535-.118,41.074,41.074,0,0,0-5.753-2.16,1.267,1.267,0,0,1,.717-2.43,43.46,43.46,0,0,1,6.109,2.295,1.267,1.267,0,0,1-.538,2.414Zm-43.4-.983a1.267,1.267,0,0,1-.392-2.472c2.047-.665,4.14-1.244,6.217-1.718a1.267,1.267,0,1,1,.565,2.47c-2.005.458-4.023,1.016-6,1.658A1.265,1.265,0,0,1,530.858,88.606Zm31.287-2.62a1.279,1.279,0,0,1-.2-.016c-2.024-.323-4.1-.549-6.172-.669a1.267,1.267,0,0,1,.148-2.529,64.534,64.534,0,0,1,6.425.7,1.267,1.267,0,0,1-.2,2.519Zm-18.947-.2a1.267,1.267,0,0,1-.166-2.523c2.136-.285,4.3-.472,6.43-.555a1.266,1.266,0,0,1,.1,2.531c-2.052.08-4.136.261-6.194.536A1.426,1.426,0,0,1,543.2,85.79Z" transform="translate(-442.632 -82.711)" fill="#f29100"/>
          </g>
          <g id="Group_148" data-name="Group 148" transform="translate(119.699 134.293)">
            <path id="Path_172" data-name="Path 172" d="M527.365,184.5a1.267,1.267,0,0,1-.1-2.529q1.548-.128,3.089-.337a1.267,1.267,0,1,1,.341,2.51q-1.607.218-3.219.35A.92.92,0,0,1,527.365,184.5Z" transform="translate(-526.1 -181.62)" fill="#f29100"/>
          </g>
        </g>
      </g>
    </g>
    <g id="Oops" transform="translate(47.531 178.345)">
      <g id="text" transform="translate(0 0)">
        <g id="Group_153" data-name="Group 153" transform="translate(4.901 241.9)">
          <path id="Path_218" data-name="Path 218" d="M53.156,334.029v5.795h8.893v1.94H53.156v6.046H63.434v1.914H51.141V332.09H63.107v1.939Z" transform="translate(-51.141 -331.031)" fill="#414042"/>
          <path id="Path_219" data-name="Path 219" d="M64.976,338.268a4.962,4.962,0,0,1,4.762-3.024v1.99a4.405,4.405,0,0,0-4.762,4.307V348.6H63.011V335.319h1.965Z" transform="translate(-46.895 -329.903)" fill="#414042"/>
          <path id="Path_220" data-name="Path 220" d="M71.876,338.268a4.962,4.962,0,0,1,4.762-3.024v1.99a4.4,4.4,0,0,0-4.762,4.307V348.6H69.911V335.319h1.965Z" transform="translate(-44.426 -329.903)" fill="#414042"/>
          <path id="Path_221" data-name="Path 221" d="M89.281,341.939a6.726,6.726,0,1,1-6.726-6.676A6.441,6.441,0,0,1,89.281,341.939Zm-11.488.024a4.763,4.763,0,1,0,4.762-4.912A4.652,4.652,0,0,0,77.793,341.964Z" transform="translate(-42.309 -329.896)" fill="#414042"/>
          <path id="Path_222" data-name="Path 222" d="M90.239,338.268A4.962,4.962,0,0,1,95,335.244v1.99a4.4,4.4,0,0,0-4.762,4.307V348.6H88.274V335.319h1.965Z" transform="translate(-37.857 -329.903)" fill="#414042"/>
          <path id="Path_223" data-name="Path 223" d="M110.962,337.228l-1.083,1.386a5.6,5.6,0,0,0-3.955-1.537,4.9,4.9,0,0,0,0,9.8,5.186,5.186,0,0,0,4.106-1.712l1.135,1.207a6.665,6.665,0,0,1-5.316,2.293,6.7,6.7,0,0,1,0-13.4A6.788,6.788,0,0,1,110.962,337.228Z" transform="translate(-33.922 -329.896)" fill="#414042"/>
          <path id="Path_224" data-name="Path 224" d="M122.668,341.939a6.726,6.726,0,1,1-6.726-6.676A6.441,6.441,0,0,1,122.668,341.939Zm-11.488.024a4.764,4.764,0,1,0,4.762-4.912A4.652,4.652,0,0,0,111.18,341.964Z" transform="translate(-30.365 -329.896)" fill="#414042"/>
          <path id="Path_225" data-name="Path 225" d="M134.205,350h-1.965v-2.846a5.541,5.541,0,0,1-5.165,2.946c-3.779,0-6.4-2.8-6.4-6.751,0-3.981,2.619-6.726,6.373-6.726a5.554,5.554,0,0,1,5.189,2.972V331.31h1.965Zm-1.965-6.6a4.8,4.8,0,1,0-4.787,4.938A4.713,4.713,0,0,0,132.241,343.4Z" transform="translate(-26.264 -331.31)" fill="#414042"/>
          <path id="Path_226" data-name="Path 226" d="M146.043,342.72H135.211a4.652,4.652,0,0,0,4.812,4.232,5.549,5.549,0,0,0,4.107-1.663l1.082,1.16a6.976,6.976,0,0,1-5.34,2.216,6.7,6.7,0,0,1-.026-13.4C144.13,335.237,146.245,338.211,146.043,342.72Zm-1.762-1.613a4.138,4.138,0,0,0-4.434-4.156,4.479,4.479,0,0,0-4.635,4.156Z" transform="translate(-21.759 -329.896)" fill="#414042"/>
          <path id="Path_227" data-name="Path 227" d="M146.789,339.1a1.225,1.225,0,1,1-1.21-1.31A1.235,1.235,0,0,1,146.789,339.1Zm0,7.483a1.225,1.225,0,1,1-1.21-1.31A1.235,1.235,0,0,1,146.789,346.579Z" transform="translate(-17.798 -328.993)" fill="#414042"/>
          <path id="Path_228" data-name="Path 228" d="M161.156,343.149v-4.66h1.89v4.66h2.669v1.939h-2.669v4.637h-1.89v-4.637h-8.464v-1.661l6.323-11.337h1.99l-6.148,11.059Z" transform="translate(-14.812 -331.031)" fill="#414042"/>
          <path id="Path_229" data-name="Path 229" d="M178.364,340.92c0,5.693-2.595,8.867-7.282,8.867s-7.28-3.174-7.28-8.867,2.6-8.867,7.28-8.867S178.364,335.227,178.364,340.92Zm-12.521,0c0,4.762,1.814,7.154,5.24,7.154s5.241-2.392,5.241-7.154c0-4.786-1.814-7.154-5.241-7.154S165.843,336.134,165.843,340.92Z" transform="translate(-10.837 -331.044)" fill="#414042"/>
          <path id="Path_230" data-name="Path 230" d="M184.545,343.149v-4.66h1.89v4.66h2.671v1.939h-2.671v4.637h-1.89v-4.637h-8.464v-1.661l6.324-11.337h1.989l-6.146,11.059Z" transform="translate(-6.444 -331.031)" fill="#414042"/>
        </g>
        <text id="De_pagina_die_u_bezoekt_is_niet_gevonden" data-name="De pagina die u bezoekt 
is niet gevonden" transform="translate(-0.099 174.022)" fill="#023c48" font-size="35" font-family="Roboto-Regular, Roboto"><tspan x="0" y="0">De pagina die u bezoekt </tspan><tspan x="0" y="42">is niet gevonden</tspan></text>
        <text id="Oeps_" data-name="Oeps!" transform="translate(-0.099 93.022)" fill="#023c48" font-size="100" font-family="Roboto-Regular, Roboto"><tspan x="0" y="0">Oeps!</tspan></text>
      </g>
    </g>
  </g>
</svg>
